<svg xmlns="http://www.w3.org/2000/svg" xmlns:xlink="http://www.w3.org/1999/xlink" id="Layer_1" x="0px" y="0px" viewBox="0 0 419 80.7" xml:space="preserve"><g>	<path fill="#655D53" d="M69.6,75.3c-0.6,0.4-1.3,0.7-1.9,0.9s-1.3,0.3-1.9,0.3c-0.7,0-1.4-0.1-2-0.3c-0.6-0.2-1.1-0.5-1.5-0.9  c-0.4-0.4-0.8-0.9-1-1.5c-0.2-0.6-0.4-1.2-0.4-1.9c0-0.7,0.1-1.3,0.3-1.8c0.2-0.5,0.5-1,0.9-1.4c0.4-0.4,0.9-0.7,1.5-0.9  c0.6-0.2,1.2-0.3,1.9-0.3c0.6,0,1.2,0.1,1.7,0.3c0.5,0.2,1,0.5,1.4,0.8c0.4,0.4,0.7,0.8,0.9,1.3c0.2,0.5,0.3,1.1,0.3,1.7v0h-7.7  v0.1c0,0.6,0.1,1.1,0.3,1.6c0.2,0.5,0.5,0.9,0.8,1.2s0.7,0.6,1.2,0.8c0.5,0.2,1,0.3,1.5,0.3c0.7,0,1.3-0.1,1.9-0.3  c0.6-0.2,1.2-0.5,1.9-1V75.3z M68.5,70.8c-0.1-0.8-0.5-1.4-1-1.9c-0.6-0.5-1.3-0.7-2-0.7c-0.4,0-0.8,0.1-1.1,0.2  c-0.4,0.1-0.7,0.3-1,0.5c-0.3,0.2-0.5,0.5-0.7,0.8c-0.2,0.3-0.3,0.7-0.4,1H68.5z"></path>	<path fill="#655D53" d="M78.9,71.8L75,67.6h1.3l3.3,3.6l3.3-3.6h1.3l-3.8,4.3l4.1,4.4H83l-3.4-3.7l-3.4,3.7h-1.3L78.9,71.8z"></path>	<path fill="#655D53" d="M90.2,63.1h1.1V69c1-1,2.1-1.5,3.4-1.5c1.1,0,2,0.3,2.6,0.9c0.6,0.6,0.9,1.5,0.9,2.6v5.3h-1.1v-4.9  c0-1-0.2-1.8-0.6-2.3c-0.4-0.5-1-0.8-1.9-0.8c-1.4,0-2.5,0.6-3.3,1.8v6.1h-1.1V63.1z"></path>	<path fill="#655D53" d="M105.2,63.1h1.1v1.6h-1.1V63.1z M105.2,67.6h1.1v8.7h-1.1V67.6z"></path>	<path fill="#655D53" d="M113.5,63.1h1.1v5.6c0.5-0.5,1.1-0.8,1.6-1c0.6-0.2,1.2-0.3,1.9-0.3c0.6,0,1.2,0.1,1.7,0.3  c0.5,0.2,1,0.5,1.3,0.9c0.4,0.4,0.7,0.8,0.9,1.4c0.2,0.5,0.3,1.1,0.3,1.7c0,0.7-0.1,1.4-0.4,2c-0.3,0.6-0.6,1.1-1.1,1.5  c-0.5,0.4-1,0.7-1.7,1c-0.7,0.2-1.4,0.3-2.2,0.3c-0.5,0-1.1-0.1-1.6-0.2c-0.5-0.1-1.1-0.3-1.7-0.5V63.1z M114.6,74.8  c0.6,0.5,1.4,0.7,2.4,0.7c0.6,0,1.1-0.1,1.6-0.3s0.9-0.4,1.3-0.8s0.6-0.7,0.8-1.2c0.2-0.5,0.3-1,0.3-1.5c0-0.5-0.1-1-0.3-1.4  c-0.2-0.4-0.4-0.8-0.7-1.1c-0.3-0.3-0.7-0.5-1.1-0.7c-0.4-0.2-0.8-0.3-1.3-0.3c-1.2,0-2.2,0.5-3.1,1.5V74.8z"></path>	<path fill="#655D53" d="M128.7,63.1h1.1v1.6h-1.1V63.1z M128.7,67.6h1.1v8.7h-1.1V67.6z"></path>	<path fill="#655D53" d="M138.7,75.2c0.1,0.2,0.5,0.3,1,0.3c0.5,0,1-0.1,1.6-0.4v1c-0.6,0.3-1.2,0.4-1.8,0.4c-0.9,0-1.5-0.2-1.8-0.6  c-0.3-0.4-0.5-1-0.5-1.8v-5.7h-2.1v-0.8h2.2v-2l0.8-0.9h0.3v2.8h2.7v0.8h-2.7v5.7C138.5,74.6,138.6,75,138.7,75.2z"></path>	<path fill="#655D53" d="M147.2,63.1h1.1v1.6h-1.1V63.1z M147.2,67.6h1.1v8.7h-1.1V67.6z"></path>	<path fill="#655D53" d="M154.7,71.9c0-0.6,0.1-1.2,0.4-1.8c0.3-0.5,0.6-1,1.1-1.4c0.5-0.4,1-0.7,1.6-1c0.6-0.2,1.3-0.4,2-0.4  c0.7,0,1.4,0.1,2,0.4c0.6,0.2,1.2,0.6,1.6,1c0.5,0.4,0.8,0.9,1.1,1.4s0.4,1.1,0.4,1.8c0,0.6-0.1,1.2-0.4,1.7  c-0.3,0.6-0.6,1.1-1.1,1.5c-1,0.9-2.2,1.3-3.6,1.3c-0.7,0-1.4-0.1-2-0.3c-0.6-0.2-1.2-0.6-1.6-1c-0.5-0.4-0.8-0.9-1.1-1.4  S154.7,72.6,154.7,71.9z M155.9,71.9c0,0.5,0.1,1,0.3,1.4c0.2,0.4,0.5,0.8,0.9,1.2c0.4,0.3,0.8,0.6,1.3,0.8s1,0.3,1.5,0.3  s1.1-0.1,1.5-0.3c0.5-0.2,0.9-0.4,1.3-0.8c0.4-0.3,0.6-0.7,0.8-1.2c0.2-0.4,0.3-0.9,0.3-1.4c0-0.5-0.1-1-0.3-1.4  c-0.2-0.4-0.5-0.8-0.8-1.2s-0.8-0.6-1.3-0.8c-0.5-0.2-1-0.3-1.5-0.3c-0.6,0-1.1,0.1-1.5,0.3c-0.5,0.2-0.9,0.4-1.3,0.8  c-0.4,0.3-0.6,0.7-0.8,1.2C156,70.9,155.9,71.4,155.9,71.9z"></path>	<path fill="#655D53" d="M171.4,67.6h1.1V69c1-1,2.1-1.5,3.4-1.5c1.1,0,2,0.3,2.6,0.9c0.6,0.6,0.9,1.5,0.9,2.6v5.3h-1.1v-4.9  c0-2.1-0.8-3.1-2.5-3.1c-1.4,0-2.5,0.6-3.3,1.8v6.1h-1.1V67.6z"></path>	<path fill="#655D53" d="M196.4,67.6h1.1v0.6c0.8-0.5,1.7-0.8,2.8-0.8c0.7,0,1.4,0.1,2,0.3c0.6,0.2,1.1,0.5,1.5,0.9  c0.4,0.4,0.8,0.9,1,1.4c0.2,0.6,0.4,1.2,0.4,1.8c0,0.7-0.1,1.3-0.4,1.9c-0.2,0.6-0.6,1-1,1.4c-0.4,0.4-0.9,0.7-1.5,0.9  c-0.6,0.2-1.2,0.3-2,0.3c-0.5,0-1-0.1-1.5-0.2c-0.5-0.1-0.9-0.3-1.3-0.6v5h-1.1V67.6z M197.5,74.6c0.3,0.3,0.7,0.6,1.2,0.7  c0.4,0.2,0.9,0.3,1.5,0.3c0.5,0,1-0.1,1.5-0.3s0.8-0.4,1.2-0.7c0.3-0.3,0.6-0.7,0.8-1.1c0.2-0.5,0.3-1,0.3-1.5  c0-0.6-0.1-1.1-0.3-1.5c-0.2-0.5-0.5-0.8-0.8-1.2c-0.3-0.3-0.7-0.6-1.2-0.7s-1-0.3-1.5-0.3c-1.1,0-2,0.3-2.7,1V74.6z"></path>	<path fill="#655D53" d="M211.6,67.6h1.1v2.1c0.6-0.8,1.1-1.3,1.6-1.7s1.1-0.6,1.7-0.6c0.3,0,0.6,0.1,0.9,0.2  c0.3,0.1,0.6,0.3,0.9,0.5l-0.6,0.9c-0.3-0.2-0.6-0.4-0.8-0.5c-0.2-0.1-0.5-0.2-0.7-0.2c-0.5,0-0.9,0.2-1.4,0.6  c-0.5,0.4-1,1-1.5,1.8v5.5h-1.1V67.6z"></path>	<path fill="#655D53" d="M222.4,71.9c0-0.6,0.1-1.2,0.4-1.8c0.3-0.5,0.6-1,1.1-1.4c0.5-0.4,1-0.7,1.6-1c0.6-0.2,1.3-0.4,2-0.4  c0.7,0,1.4,0.1,2,0.4c0.6,0.2,1.2,0.6,1.6,1c0.5,0.4,0.8,0.9,1.1,1.4c0.3,0.6,0.4,1.1,0.4,1.8c0,0.6-0.1,1.2-0.4,1.7  c-0.3,0.6-0.6,1.1-1.1,1.5c-1,0.9-2.2,1.3-3.6,1.3c-0.7,0-1.4-0.1-2-0.3c-0.6-0.2-1.2-0.6-1.6-1c-0.5-0.4-0.8-0.9-1.1-1.4  C222.6,73.1,222.4,72.6,222.4,71.9z M223.7,71.9c0,0.5,0.1,1,0.3,1.4c0.2,0.4,0.5,0.8,0.9,1.2c0.4,0.3,0.8,0.6,1.3,0.8  s1,0.3,1.5,0.3s1.1-0.1,1.5-0.3s0.9-0.4,1.3-0.8c0.4-0.3,0.6-0.7,0.8-1.2s0.3-0.9,0.3-1.4c0-0.5-0.1-1-0.3-1.4  c-0.2-0.4-0.5-0.8-0.8-1.2c-0.4-0.3-0.8-0.6-1.3-0.8c-0.5-0.2-1-0.3-1.5-0.3c-0.6,0-1.1,0.1-1.5,0.3c-0.5,0.2-0.9,0.4-1.3,0.8  c-0.4,0.3-0.6,0.7-0.8,1.2C223.8,70.9,223.7,71.4,223.7,71.9z"></path>	<path fill="#655D53" d="M239.3,68.4h-1.7v-0.8h1.7v-1c0-1.3,0.3-2.2,0.8-2.8c0.5-0.6,1.4-0.9,2.6-0.9c0.3,0,0.7,0,1.1,0.1v0.8  c-0.2,0-0.4-0.1-0.5-0.1c-0.2,0-0.3,0-0.4,0c-0.9,0-1.5,0.2-1.9,0.6c-0.4,0.4-0.5,1.1-0.5,1.9v1.2h1.8v0.8h-1.8v7.9h-1.1V68.4z"></path>	<path fill="#655D53" d="M256.1,75.3c-0.6,0.4-1.3,0.7-1.9,0.9c-0.6,0.2-1.3,0.3-1.9,0.3c-0.7,0-1.4-0.1-2-0.3  c-0.6-0.2-1.1-0.5-1.5-0.9c-0.4-0.4-0.8-0.9-1-1.5c-0.2-0.6-0.4-1.2-0.4-1.9c0-0.7,0.1-1.3,0.3-1.8s0.5-1,0.9-1.4s0.9-0.7,1.5-0.9  c0.6-0.2,1.2-0.3,1.9-0.3c0.6,0,1.2,0.1,1.7,0.3s1,0.5,1.4,0.8s0.7,0.8,0.9,1.3c0.2,0.5,0.3,1.1,0.3,1.7v0h-7.7v0.1  c0,0.6,0.1,1.1,0.3,1.6c0.2,0.5,0.5,0.9,0.8,1.2c0.3,0.3,0.7,0.6,1.2,0.8c0.5,0.2,1,0.3,1.5,0.3c0.7,0,1.3-0.1,1.9-0.3  c0.6-0.2,1.2-0.5,1.9-1V75.3z M255,70.8c-0.1-0.8-0.5-1.4-1-1.9c-0.6-0.5-1.3-0.7-2-0.7c-0.4,0-0.8,0.1-1.1,0.2  c-0.4,0.1-0.7,0.3-1,0.5c-0.3,0.2-0.5,0.5-0.7,0.8c-0.2,0.3-0.3,0.7-0.4,1H255z"></path>	<path fill="#655D53" d="M265.2,75.6c0.6,0,1.1-0.1,1.5-0.4c0.4-0.3,0.5-0.6,0.5-1.1c0-0.3-0.1-0.6-0.2-0.7  c-0.1-0.2-0.3-0.3-0.6-0.5c-0.2-0.1-0.5-0.2-0.9-0.3c-0.3-0.1-0.7-0.2-1.1-0.4c-1.5-0.5-2.2-1.3-2.2-2.4c0-0.3,0.1-0.7,0.2-1  c0.2-0.3,0.4-0.6,0.6-0.8c0.3-0.2,0.6-0.4,1-0.5c0.4-0.1,0.8-0.2,1.3-0.2c0.8,0,1.7,0.2,2.7,0.7v1c-1-0.6-1.9-0.9-2.8-0.9  c-0.6,0-1.1,0.1-1.5,0.4s-0.6,0.6-0.6,1.1c0,0.4,0.2,0.8,0.6,1c0.4,0.3,1,0.5,1.9,0.8c0.9,0.3,1.5,0.6,2,0.9  c0.4,0.3,0.6,0.8,0.6,1.5c0,0.8-0.3,1.4-0.9,1.8s-1.4,0.7-2.4,0.7c-1,0-2-0.3-2.9-0.8v-1C263.3,75.3,264.2,75.6,265.2,75.6z"></path>	<path fill="#655D53" d="M277.2,75.6c0.6,0,1.1-0.1,1.5-0.4c0.4-0.3,0.5-0.6,0.5-1.1c0-0.3-0.1-0.6-0.2-0.7  c-0.1-0.2-0.3-0.3-0.6-0.5c-0.2-0.1-0.5-0.2-0.9-0.3c-0.3-0.1-0.7-0.2-1.1-0.4c-1.5-0.5-2.2-1.3-2.2-2.4c0-0.3,0.1-0.7,0.2-1  c0.2-0.3,0.4-0.6,0.6-0.8c0.3-0.2,0.6-0.4,1-0.5c0.4-0.1,0.8-0.2,1.3-0.2c0.8,0,1.7,0.2,2.7,0.7v1c-1-0.6-1.9-0.9-2.8-0.9  c-0.6,0-1.1,0.1-1.5,0.4s-0.6,0.6-0.6,1.1c0,0.4,0.2,0.8,0.6,1c0.4,0.3,1,0.5,1.9,0.8c0.9,0.3,1.5,0.6,2,0.9  c0.4,0.3,0.6,0.8,0.6,1.5c0,0.8-0.3,1.4-0.9,1.8s-1.4,0.7-2.4,0.7c-1,0-2-0.3-2.9-0.8v-1C275.3,75.3,276.2,75.6,277.2,75.6z"></path>	<path fill="#655D53" d="M286.9,63.1h1.1v1.6h-1.1V63.1z M286.9,67.6h1.1v8.7h-1.1V67.6z"></path>	<path fill="#655D53" d="M294.5,71.9c0-0.6,0.1-1.2,0.4-1.8c0.3-0.5,0.6-1,1.1-1.4c0.5-0.4,1-0.7,1.6-1c0.6-0.2,1.3-0.4,2-0.4  c0.7,0,1.4,0.1,2,0.4c0.6,0.2,1.2,0.6,1.6,1c0.5,0.4,0.8,0.9,1.1,1.4c0.3,0.6,0.4,1.1,0.4,1.8c0,0.6-0.1,1.2-0.4,1.7  c-0.3,0.6-0.6,1.1-1.1,1.5c-1,0.9-2.2,1.3-3.6,1.3c-0.7,0-1.4-0.1-2-0.3c-0.6-0.2-1.2-0.6-1.6-1c-0.5-0.4-0.8-0.9-1.1-1.4  C294.6,73.1,294.5,72.6,294.5,71.9z M295.7,71.9c0,0.5,0.1,1,0.3,1.4c0.2,0.4,0.5,0.8,0.9,1.2c0.4,0.3,0.8,0.6,1.3,0.8  s1,0.3,1.5,0.3s1.1-0.1,1.5-0.3s0.9-0.4,1.3-0.8c0.4-0.3,0.6-0.7,0.8-1.2s0.3-0.9,0.3-1.4c0-0.5-0.1-1-0.3-1.4  c-0.2-0.4-0.5-0.8-0.8-1.2c-0.4-0.3-0.8-0.6-1.3-0.8c-0.5-0.2-1-0.3-1.5-0.3c-0.6,0-1.1,0.1-1.5,0.3c-0.5,0.2-0.9,0.4-1.3,0.8  c-0.4,0.3-0.6,0.7-0.8,1.2C295.8,70.9,295.7,71.4,295.7,71.9z"></path>	<path fill="#655D53" d="M311.1,67.6h1.1V69c1-1,2.1-1.5,3.4-1.5c1.1,0,2,0.3,2.6,0.9c0.6,0.6,0.9,1.5,0.9,2.6v5.3h-1.1v-4.9  c0-2.1-0.8-3.1-2.5-3.1c-1.4,0-2.5,0.6-3.3,1.8v6.1h-1.1V67.6z"></path>	<path fill="#655D53" d="M331.2,75.4c-0.5,0.3-1,0.6-1.5,0.8c-0.5,0.2-1,0.3-1.5,0.3c-0.8,0-1.5-0.2-2-0.6c-0.5-0.4-0.7-1-0.7-1.6  c0-1,0.5-1.7,1.4-2.3c1-0.6,2.4-0.9,4.3-0.9v-0.9c0-0.7-0.2-1.1-0.5-1.4c-0.3-0.3-0.9-0.4-1.7-0.4c-0.5,0-1,0.1-1.5,0.3  s-1,0.4-1.5,0.8v-0.9c1.1-0.6,2.1-1,3.1-1c1.2,0,2,0.2,2.5,0.7c0.5,0.5,0.7,1.2,0.7,2.2v4.6c0,0.4,0.1,0.6,0.4,0.6  c0.2,0,0.3-0.1,0.5-0.2s0.4-0.3,0.6-0.5v0.9c-0.6,0.5-1.2,0.8-1.6,0.8c-0.3,0-0.6-0.1-0.7-0.2C331.3,76,331.2,75.8,331.2,75.4z   M331.2,71.8c-1.5,0-2.7,0.3-3.4,0.7c-0.8,0.4-1.2,1-1.2,1.7c0,0.4,0.2,0.8,0.5,1c0.3,0.3,0.8,0.4,1.4,0.4c0.4,0,0.9-0.1,1.3-0.3  c0.4-0.2,0.9-0.5,1.4-0.8V71.8z"></path>	<path fill="#655D53" d="M339.6,63.1h1.1v13.2h-1.1V63.1z"></path>	<path fill="#655D53" d="M350.2,75.6c0.6,0,1.1-0.1,1.5-0.4c0.4-0.3,0.5-0.6,0.5-1.1c0-0.3-0.1-0.6-0.2-0.7  c-0.1-0.2-0.3-0.3-0.6-0.5c-0.2-0.1-0.5-0.2-0.9-0.3c-0.3-0.1-0.7-0.2-1.1-0.4c-1.5-0.5-2.2-1.3-2.2-2.4c0-0.3,0.1-0.7,0.2-1  c0.2-0.3,0.4-0.6,0.6-0.8c0.3-0.2,0.6-0.4,1-0.5c0.4-0.1,0.8-0.2,1.3-0.2c0.8,0,1.7,0.2,2.7,0.7v1c-1-0.6-1.9-0.9-2.8-0.9  c-0.6,0-1.1,0.1-1.5,0.4s-0.6,0.6-0.6,1.1c0,0.4,0.2,0.8,0.6,1c0.4,0.3,1,0.5,1.9,0.8c0.9,0.3,1.5,0.6,2,0.9  c0.4,0.3,0.6,0.8,0.6,1.5c0,0.8-0.3,1.4-0.9,1.8s-1.4,0.7-2.4,0.7c-1,0-2-0.3-2.9-0.8v-1C348.2,75.3,349.2,75.6,350.2,75.6z"></path></g><path fill="#655D53" d="M363.2,71.9H419H363.2z"></path><line fill="none" stroke="#665D53" stroke-miterlimit="10" x1="419" y1="71.9" x2="363.2" y2="71.9"></line><path fill="#655D53" d="M0,74.4h55.8H0z"></path><line fill="none" stroke="#665D53" stroke-miterlimit="10" x1="55.8" y1="74.4" x2="0" y2="74.4"></line><polygon fill="#A11E22" points="29.5,37 29.5,47.2 0.4,47.2 0.4,0.9 29.1,0.9 29.1,11.1 11,11.1 11,18.8 27.5,18.8 27.5,28.8  11,28.8 11,37 "></polygon><polygon fill="#A11E22" points="55.1,47.2 49,38.5 42.8,47.2 31.5,47.2 43.3,30.4 31.9,14.1 43.2,14.1 49,22.3 54.7,14.1 66.1,14.1  54.7,30.4 66.5,47.2 "></polygon><path fill="#A11E22" d="M105.7,30.7c0,9.8-7.1,17.4-15.8,17.4c-4.4,0-7.7-1.5-9.8-4v16.3h-9.9V14.1H80v3.1c2.2-2.5,5.4-4,9.8-4 C98.5,13.2,105.7,20.8,105.7,30.7 M95.8,30.7c0-5-3.3-8.1-7.9-8.1c-4.6,0-7.9,3.1-7.9,8.1c0,5,3.3,8.1,7.9,8.1 C92.4,38.7,95.8,35.6,95.8,30.7"></path><path fill="#A11E22" d="M131.1,13.5v11.2c-4.1-0.7-9.9,1-9.9,7.5v14.9h-9.9v-33h9.9V20C122.5,15.6,126.9,13.5,131.1,13.5"></path><path fill="#A11E22" d="M133.1,30.7c0-9.8,7.8-17.4,17.5-17.4c9.7,0,17.5,7.6,17.5,17.4c0,9.8-7.8,17.4-17.5,17.4 C140.9,48.1,133.1,40.5,133.1,30.7 M158.2,30.7c0-4.7-3.3-7.8-7.6-7.8c-4.3,0-7.6,3.1-7.6,7.8c0,4.7,3.3,7.8,7.6,7.8 C154.9,38.5,158.2,35.4,158.2,30.7"></path><path fill="#A11E22" d="M219.8,25.4c0,14.1-9.8,22.7-22.8,22.7c-14.5,0-25-10.7-25-24c0-13.4,10.6-24.1,24.3-24.1 c8.9,0,16.3,4.4,20.2,10.6l-9,5.2c-1.9-3-6.1-5.4-11.3-5.4c-7.8,0-13.6,5.7-13.6,13.9c0,7.9,5.6,13.6,14.5,13.6 c6.1,0,10.2-2.7,11.8-7.1h-12.4v-9.3h23.2V25.4z"></path><polygon fill="#A11E22" points="252.9,37 252.9,47.2 225.8,47.2 225.8,0.9 236.4,0.9 236.4,37 "></polygon><path fill="#A11E22" d="M341.3,33.6c0,8.2-6.7,13.5-14.9,13.5h-19.4V0.9H325c8.1,0,14.6,5.2,14.6,13.2c0,3.8-1.5,6.9-4,9.1 C339,25.4,341.3,28.9,341.3,33.6 M317.5,10.8V19h7.5c2.4,0,4-1.7,4-4.1c0-2.4-1.6-4.1-4-4.1H317.5z M330.7,32.8 c0-2.6-1.7-4.4-4.4-4.4h-8.9v8.9h8.9C329,37.3,330.7,35.4,330.7,32.8"></path><path fill="#A11E22" d="M373.7,39.9h-17.2l-2.3,7.3h-11.6l15.7-46.3h13.5l15.7,46.3H376L373.7,39.9z M370.5,30l-5.4-17l-5.4,17 H370.5z"></path><polygon fill="#A11E22" points="418.6,37 418.6,47.2 391.5,47.2 391.5,0.9 402.1,0.9 402.1,37 "></polygon><g>	<defs>		<path id="SVGID_1_" d="M277.4,0.3c-13.2,0.3-23.8,11.2-23.5,24.5c0.3,13.2,11.2,23.8,24.5,23.5c13.2-0.3,23.8-11.2,23.5-24.5   c-0.3-13.1-10.9-23.5-24-23.5C277.8,0.3,277.6,0.3,277.4,0.3"></path>	</defs>	<clipPath id="SVGID_2_">		<use xlink:href="#SVGID_1_"></use>	</clipPath>	<path clip-path="url(#SVGID_2_)" fill="#A11E22" d="M301.9,24.3c0-13.2-10.7-24-24-24c-13.2,0-24,10.7-24,24c0,13.2,10.7,24,24,24  C291.2,48.2,301.9,37.5,301.9,24.3"></path>	<path clip-path="url(#SVGID_2_)" fill="#FFFFFF" d="M280.9,38.1c-0.1,0.1,0,0.2-0.1,0.3c-0.1,0.1-0.1,0.1-0.2,0.2  c-0.1,0.1-0.1,0.1-0.1,0.2c-0.1,0.1-0.1,0.2-0.2,0.3c-0.1,0.1-0.2,0.2-0.4,0.3c-0.1,0.1-0.1,0.1-0.1,0.1c-0.2,0.1-0.3,0-0.4,0.1  c-0.1,0.1-0.2,0.2-0.3,0.2c-0.1,0.1-0.1,0.3-0.1,0.5c0,0.3,0,0.3,0,0.5c0,0.1,0,0.3-0.1,0.4c-0.1,0.3-0.3,0.3-0.3,0.5  c0,0.1,0,0.1,0,0.3c0,0.1,0,0.1,0,0.2c0,0.1,0,0.2,0,0.2c0,0.1,0.1,0.1,0.1,0.2c0.1,0.1,0.2,0.2,0.3,0.2c0.1,0,0.3,0.1,0.5,0  c0.1-0.1,0.1-0.1,0.3-0.5c0.1-0.3,0.1-0.2,0.2-0.5c0.1-0.3,0.1-0.3,0.2-0.5c0.1-0.2,0.1-0.2,0.4-0.5c0.2-0.3,0.3-0.5,0.3-0.6  c0-0.3-0.1-0.4,0-0.7c0-0.1,0.1-0.1,0.2-0.1c0.1,0,0.1,0.1,0.1,0.1c0.1,0,0.1-0.2,0.1-0.2c0-0.1,0-0.2,0-0.4c0-0.4,0-0.2-0.1-0.6  c0-0.2,0-0.2-0.1-0.3C281,37.9,280.9,38,280.9,38.1"></path>	<path clip-path="url(#SVGID_2_)" fill="#FFFFFF" d="M267.4,16.1C267.4,16.1,267.3,16.2,267.4,16.1c-0.1,0.2,0,0.3,0,0.4  c0.1,0.1,0.2,0.1,0.3,0.2c0.1,0.1,0.2,0.1,0.2,0.1c0.1,0,0.1-0.1,0.2-0.1c0-0.1,0-0.1,0-0.2c0-0.1,0.1-0.1,0.1-0.2c0,0,0-0.1,0-0.1  c0,0-0.1,0-0.2,0c-0.2,0-0.2,0.1-0.3,0.1c-0.1,0-0.2,0-0.2,0C267.5,16.1,267.4,16.1,267.4,16.1"></path>	<path clip-path="url(#SVGID_2_)" fill="#FFFFFF" d="M266.7,14.2c0,0-0.2,0.1-0.2,0.2c-0.1,0.1-0.1,0.2-0.1,0.2c0,0,0,0.2,0,0.2  c0,0,0.1,0,0.1-0.1c0.1-0.1,0.1-0.1,0.1-0.1c0,0,0-0.1,0-0.2C266.8,14.3,266.8,14.2,266.7,14.2"></path>	<path clip-path="url(#SVGID_2_)" fill="#FFFFFF" d="M266.3,15c-0.1,0.1,0,0.2,0,0.3c0,0.1,0,0-0.1,0.1c-0.1,0.1-0.1,0.1-0.1,0.2  c0,0.1,0.1,0.2,0.1,0.2c0.1,0,0.1,0,0.2-0.1c0.1-0.1,0.2-0.2,0.2-0.3c0-0.1,0-0.1,0.1-0.3c0-0.1,0-0.1,0-0.2c0,0-0.1-0.1-0.1-0.1  C266.5,14.9,266.3,14.9,266.3,15"></path>	<path clip-path="url(#SVGID_2_)" fill="#FFFFFF" d="M270,16C269.9,16,269.9,16.1,270,16c-0.1,0.1,0,0.2,0,0.2c0,0,0,0,0-0.1  C270.1,16.1,270,16,270,16"></path>	<path clip-path="url(#SVGID_2_)" fill="#FFFFFF" d="M270,16.3C270,16.3,270,16.3,270,16.3C270.1,16.4,270.1,16.4,270,16.3  C270.1,16.3,270.1,16.3,270,16.3C270.1,16.3,270,16.3,270,16.3"></path>	<path clip-path="url(#SVGID_2_)" fill="#FFFFFF" d="M270.3,16.1C270.3,16.1,270.2,16.2,270.3,16.1c-0.1,0.1,0,0.2,0,0.2  c0,0.1,0,0.1,0,0.1c0,0,0.1,0.1,0.1,0.1c0.1,0,0.1,0,0.1,0c0.1,0.1,0.1,0.2,0.2,0.3c0.1,0,0.1,0,0.1-0.1c0,0,0-0.1,0-0.1  c-0.1-0.2-0.1-0.2-0.1-0.3c0,0,0.1-0.1,0.1-0.1c0.1,0,0.1,0.1,0.1,0.1c0,0,0-0.1,0-0.1c0-0.1-0.1-0.1-0.2-0.2  C270.6,16.1,270.4,16.1,270.3,16.1"></path>	<path clip-path="url(#SVGID_2_)" fill="#FFFFFF" d="M271,17.1c0,0,0.1,0,0.2,0c0.1,0,0.1,0,0.1,0.1c0.1,0.1,0.2,0,0.3,0  c0.2,0,0.4,0.1,0.4,0.1c0,0-0.1,0.1-0.2,0.1c-0.1,0-0.1,0-0.3,0c-0.2,0-0.3,0-0.3-0.1C271.1,17.3,271,17.2,271,17.1"></path>	<path clip-path="url(#SVGID_2_)" fill="#FFFFFF" d="M293.2,28.9c0,0,0,0-0.1,0.4c-0.1,0.2-0.1,0.4-0.1,0.4c0,0.2,0.1,0.2,0.1,0.5  c0,0.1,0,0.1,0,0.1c0.1,0.1,0.2,0,0.3-0.1c0.2-0.1,0.2-0.4,0.2-0.4c0-0.2-0.1-0.2-0.2-0.5C293.2,29.1,293.2,28.9,293.2,28.9"></path>	<path clip-path="url(#SVGID_2_)" fill="#FFFFFF" d="M297.8,30.8c-0.1-0.1-0.1,0-0.2-0.1c-0.1-0.1-0.2-0.2-0.2-0.2  c-0.1,0-0.1,0.2-0.1,0.2c0,0,0,0.4,0.2,0.6c0.1,0,0.1,0.1,0.1,0.1c0,0,0,0.1,0,0.2c0,0.1,0,0.1,0,0.2c0,0.1,0.1,0.1,0.1,0.2  c0,0.1,0.1,0.1,0.1,0.2c0,0.2,0,0.3-0.1,0.4c0,0.2,0.1,0.2,0.1,0.4c0,0.2,0,0.5,0,0.6c0,0.2-0.1,0.3,0,0.4c0,0.2,0.1,0.2,0.1,0.4  c0,0.2-0.1,0.2-0.1,0.3c0,0.1,0,0.1,0.1,0.3c0.1,0.2,0,0.2,0.1,0.3c0.1,0,0.3-0.1,0.3-0.1c0.2-0.1,0.2-0.3,0.3-0.7  c0.1-0.3,0.2-0.5,0.1-0.5c-0.1,0-0.2,0.1-0.2,0c0,0,0-0.1,0-0.2c0-0.1,0.1-0.3,0-0.3c0-0.1-0.1,0-0.1-0.1c0-0.1,0-0.2,0-0.2  c0.1-0.2,0.2-0.2,0.2-0.3c0-0.1-0.1-0.1-0.2-0.2c0-0.1,0-0.2-0.1-0.4c0-0.1,0-0.1,0-0.1c0-0.1-0.1-0.1-0.1-0.1  c0-0.1-0.1-0.1-0.1-0.3c0-0.1,0-0.1,0-0.2c0-0.2-0.2-0.2-0.2-0.4c0-0.1,0-0.2,0-0.3C297.9,30.9,297.9,30.8,297.8,30.8"></path>	<path clip-path="url(#SVGID_2_)" fill="#FFFFFF" d="M297.4,32.4c-0.1,0-0.1,0.3,0,0.3c0.1,0,0.1,0,0.2-0.1c0,0,0,0,0-0.1  C297.6,32.5,297.5,32.4,297.4,32.4"></path>	<path clip-path="url(#SVGID_2_)" fill="#FFFFFF" d="M297.5,33.5c0,0,0.1,0.1,0.1,0.1c0,0,0,0.1,0,0.1c0,0-0.1,0-0.1,0  C297.4,33.6,297.5,33.5,297.5,33.5"></path>	<path clip-path="url(#SVGID_2_)" fill="#FFFFFF" d="M297.5,33c0,0-0.1,0.1-0.1,0.1c0,0.1,0.1,0.1,0.2,0  C297.7,33.1,297.6,33,297.5,33"></path>	<path clip-path="url(#SVGID_2_)" fill="#FFFFFF" d="M297.3,31.7c0,0-0.1,0.1,0,0.1c0,0.1,0.2,0.2,0.2,0.2c0,0,0-0.1,0-0.2  C297.4,31.8,297.3,31.7,297.3,31.7"></path>	<path clip-path="url(#SVGID_2_)" fill="#FFFFFF" d="M297.6,34.2c0,0,0,0.3,0,0.3c0,0,0.1-0.1,0.1-0.1  C297.7,34.3,297.6,34.2,297.6,34.2"></path>	<path clip-path="url(#SVGID_2_)" fill="#FFFFFF" d="M298.1,35.7c-0.1,0-0.2,0.1-0.1,0.2c0,0,0,0,0,0.1c0,0.1,0,0.1,0,0.2  c0,0.1,0.2,0.2,0.3,0.1c0.1,0,0.1,0,0.1,0c0.1,0,0,0.1,0.1,0.2c0,0,0.1,0.1,0.1,0.1c0.1,0,0.2,0,0.2,0.1c0,0,0,0.1,0,0.1  c0,0,0.1,0,0.1,0c0.1,0,0.1-0.1,0.1-0.2c0-0.1-0.1-0.1-0.2-0.2c0,0-0.1-0.1-0.1-0.1c0-0.1,0.2-0.1,0.3-0.3c0,0,0-0.1,0-0.1  c0-0.1-0.3-0.2-0.4-0.1c-0.1,0.1-0.1,0.2-0.2,0.2c0,0,0-0.1-0.1-0.2C298.3,35.8,298.2,35.7,298.1,35.7"></path>	<path clip-path="url(#SVGID_2_)" fill="#FFFFFF" d="M301.1,30c0,0,0,0-0.1,0.3c-0.1,0.4-0.1,0.4-0.2,0.5c-0.1,0.1-0.2,0.1-0.2,0.3  c0,0.1,0,0.1,0,0.1c0,0.1-0.1,0.2-0.2,0.2c-0.1,0.1-0.1,0.2-0.3,0.7c-0.1,0.3-0.2,0.4-0.2,0.3c-0.1,0,0-0.2-0.1-0.2  c-0.1,0-0.1,0.2-0.2,0.5c-0.1,0.4,0,0.4-0.1,0.8c-0.1,0.3-0.1,0.4-0.1,0.6c0,0.1,0,0.2,0.1,0.3c0,0.2,0.1,0.2,0.1,0.3  c0.1,0,0.2-0.1,0.3-0.2c0.2-0.2,0.1-0.4,0.2-0.7c0.1-0.3,0.2-0.2,0.3-0.4c0.1-0.2,0-0.4,0.1-0.6c0.1-0.1,0.1-0.1,0.2-0.1  c0.2-0.2,0-0.5,0.1-1.1c0-0.1,0.1-0.3,0.2-0.6c0.1-0.1,0.1-0.1,0.1-0.2C301.2,30.3,301.1,30,301.1,30"></path>	<path clip-path="url(#SVGID_2_)" fill="#FFFFFF" d="M300.2,23.9c-0.1,0-0.1,0.2-0.2,0.2c0,0-0.1,0.3,0,0.4c0,0,0.1,0.1,0.2,0  c0.1,0,0.1-0.2,0.1-0.3C300.4,24.2,300.3,23.9,300.2,23.9"></path>	<path clip-path="url(#SVGID_2_)" fill="#FFFFFF" d="M277.6,6c0,0,0-0.1,0.2-0.3c0.2-0.3,0.2-0.3,0.2-0.4c0.2-0.1,0.3,0,0.7-0.1  c0.2-0.1,0.3-0.2,0.5-0.2c0.1,0,0.2,0,0.3,0c0,0-0.2,0.1-0.4,0.2c-0.2,0.1-0.3,0.1-0.4,0.1c-0.2,0.1-0.3,0.1-0.3,0.2  c-0.1,0.1-0.2,0.2-0.2,0.3c0,0.1,0.1,0.2,0.2,0.2c0.1,0.1,0.2,0.1,0.2,0.1c0,0-0.1,0-0.2,0.1C278.1,6.2,277.7,6.2,277.6,6"></path>	<path clip-path="url(#SVGID_2_)" fill="#FFFFFF" d="M277.2,6.4c0-0.1,0.3-0.1,0.3,0c0,0,0,0.1,0,0.2c0,0.1-0.2,0.1-0.2,0.1  C277.2,6.5,277.1,6.4,277.2,6.4"></path>	<path clip-path="url(#SVGID_2_)" fill="#FFFFFF" d="M281.4,4.4c-0.1,0-0.1,0.1-0.1,0.2c0,0.1,0.2,0.1,0.4,0.1c0.3,0,0.4,0,0.6,0  c0.2,0,0.2,0,0.2,0c0,0-0.1-0.1-0.4-0.1C281.7,4.4,281.5,4.3,281.4,4.4"></path>	<path clip-path="url(#SVGID_2_)" fill="#FFFFFF" d="M282.8,4.8c0,0.1,0.3,0.1,0.3,0c0,0,0-0.1,0-0.1c0-0.1-0.2-0.1-0.3,0  C282.8,4.7,282.8,4.8,282.8,4.8"></path>	<path clip-path="url(#SVGID_2_)" fill="#FFFFFF" d="M276.3,4.6c0,0.1,0.5,0.1,0.7,0.1c0.4,0,0.3-0.1,0.6-0.1c0.3,0,0.4,0.1,0.7,0.1  c0.1,0,0.4,0,0.4-0.1c0,0-0.2-0.1-0.4-0.1c-0.2,0-0.3,0-0.7,0c-0.3,0-0.4,0-0.5,0c-0.3,0-0.4-0.2-0.5-0.1  C276.3,4.5,276.3,4.6,276.3,4.6"></path>	<path clip-path="url(#SVGID_2_)" fill="#FFFFFF" d="M264,11.8c0,0,0.2,0,0.9-0.2c0.3-0.1,0.4-0.1,0.5-0.2c0.1-0.1,0.1-0.2,0.3-0.3  c0.2-0.1,0.3-0.1,0.3-0.2c0-0.1-0.1-0.1-0.2-0.3c0-0.1,0-0.1,0-0.5c0-0.3,0-0.2,0-0.3c0.1-0.3,0.4-0.4,0.4-0.5c0-0.1-0.3,0-0.3-0.1  c0-0.1,0.1-0.2,0.1-0.2c0,0-0.4,0.3-0.5,0.3c0,0,0.1-0.1,0.1-0.2c0,0-0.3,0.2-0.5,0.3c-0.2,0.2-0.2,0.2-0.2,0.3  c0,0.1,0.2,0.2,0.3,0.4c0,0,0.1,0.2,0,0.3c-0.1,0.1-0.1,0-0.3,0.1c-0.1,0-0.1,0.1-0.2,0.1c0,0.1,0,0.2,0,0.2  c-0.1,0.1-0.2,0-0.3,0.1c0,0-0.1,0.1-0.1,0.1c0,0.1,0.3,0.1,0.3,0.2c0,0.1-0.2,0.1-0.4,0.2C264.2,11.6,264,11.8,264,11.8"></path>	<path clip-path="url(#SVGID_2_)" fill="#FFFFFF" d="M263.6,11.3c0,0,0-0.1,0-0.2c0-0.1,0.2-0.2,0.3-0.3c0.1,0,0.1,0,0.1,0  c0-0.1-0.1-0.1-0.1-0.2c0-0.1,0.1-0.1,0.3-0.1c0.1,0,0.2,0,0.3-0.1c0,0,0.1,0,0.1-0.1c0.2-0.1,0.3-0.2,0.3-0.2c0,0,0.1,0.1,0.1,0.1  c0,0.1-0.2,0.1-0.3,0.3c0,0.1,0,0.1-0.1,0.2c0,0,0,0.1-0.1,0.1c0,0-0.1,0.1-0.3,0.2c-0.2,0.1-0.2,0-0.3,0.1  C263.8,11.2,263.7,11.3,263.6,11.3"></path>	<path clip-path="url(#SVGID_2_)" fill="#FFFFFF" d="M265.1,7.6c0,0.1-0.1,0.1-0.1,0.2c0,0.1,0.3,0.1,0.6,0c0.2,0,0.6-0.1,0.8-0.4  c0,0,0.1-0.2,0.1-0.3c0-0.1-0.2-0.1-0.3-0.1c-0.1,0-0.2,0-0.3,0.1c-0.2,0.1-0.2,0.2-0.3,0.1c-0.1,0,0-0.2,0-0.2  c-0.1,0-0.2,0.1-0.3,0.2c0,0-0.1,0.1-0.1,0.2C265.1,7.5,265.1,7.5,265.1,7.6"></path>	<path clip-path="url(#SVGID_2_)" fill="#FFFFFF" d="M287.2,5.2c0,0.1,0.3,0.4,0.7,0.3c0.2,0,0.3-0.2,0.7-0.2c0.2,0,0.3,0,0.3,0  c0,0-0.3-0.1-0.6-0.1c-0.2,0-0.1,0-0.7,0C287.3,5.2,287.3,5.2,287.2,5.2"></path>	<path clip-path="url(#SVGID_2_)" fill="#FFFFFF" d="M265.4,5.8c-1,0.7-0.9,0.7-1,0.8c-0.9,0.7-1.1,0.7-1.6,1.2  C262.5,8,262,8.5,262,8.6c0.1,0.1,0.9-0.6,2.5-1.3c0.3-0.1,0.2-0.1,1.3-0.6c1.2-0.5,1.4-0.6,1.8-0.8c0.7-0.4,0.6-0.5,1-0.6  c0.5-0.2,0.9-0.2,1.5-0.6c0.3-0.2,0.3-0.3,0.3-0.3c-0.1-0.2-1.3-0.1-1.5-0.1c-0.3,0-0.7,0.1-1.3,0.2c-0.2,0.1-0.3,0.1-0.5,0.2  c-0.4,0.2-0.8,0.4-1.3,0.7C265.8,5.5,265.6,5.6,265.4,5.8"></path>	<path clip-path="url(#SVGID_2_)" fill="#FFFFFF" d="M300.8,22c0,0-0.1-0.4-0.1-0.6c0-0.2,0.2-0.8-0.2-1.6c-0.4-0.9-0.6-1.1-0.6-1.5  c0-0.3-0.2-0.2-0.5-0.8c-0.4-0.6-0.2-0.6-0.2-0.9c0-0.2-0.1-0.1-0.2-0.2c-0.1-0.1-0.1-0.1-0.1,0c0,0.1-0.1,0.1-0.1,0.1  c0,0-0.2-0.3-0.2-0.3l-0.2-0.2c-0.2-0.2-0.2-0.1-0.1-0.3c0.1-0.1,0-0.1,0-0.2c0-0.1-0.1-0.3-0.1-0.4c0-0.1,0.2,0.2,0.2,0.3  c0.1,0.1,0.1,0.2,0.3,0.4c0,0.1,0-0.4,0-0.4l0.1,0c0.1,0,0.1,0.3,0.2,0.4c0.1,0.2,0.1,0.3,0.2,0.3c0.1,0.1,0.1,0,0.1-0.1  c0-0.1,0-0.2-0.1-0.4c-0.1-0.2-0.1-0.2-0.3-0.7c-0.2-0.5,0-0.5-0.6-1.3c-0.5-0.9-1.4-2.1-2-2.6c-0.6-0.5-0.5-0.5-0.8-0.8  c-0.3-0.3-0.9-0.8-1.2-1.2c-0.4-0.4-0.3-0.3-0.2-0.3c0.2,0.1,0.6,0.1-0.3-0.5c-0.9-0.6-2.5-1.9-2.6-2c0-0.1-0.2,0-0.3-0.1  c-0.1-0.1-0.4-0.2-0.6-0.3c-0.2,0-0.6-0.2-0.6-0.3c0,0-0.3,0-1,0c-0.6,0,0.1,0.1,0.3,0.1c0.2,0.1,0,0.1-0.1,0.1  c-0.2,0-0.3-0.1-0.5-0.1c-0.2,0-0.6-0.1-0.6-0.1s-0.5-0.1-0.7-0.2c-0.2-0.1-0.2,0-0.3,0c-0.1,0,0,0.1,0,0.1c0,0-0.2,0-0.3,0  c-0.1,0,0-0.1,0-0.1c0,0-0.5,0-0.8,0c-0.3,0-0.3-0.1-0.4-0.2c-0.2-0.1-0.1,0.1-0.1,0.1c0.1,0.1,0,0.1-0.3,0.1c-0.3,0-0.1,0-0.1-0.1  c0,0,0.1-0.1,0.1-0.2c0-0.1-0.1-0.2-0.1-0.2s-0.1,0-0.3-0.1c-0.2,0-0.4,0-0.6,0c-0.2,0-0.5-0.2-0.7-0.2c-0.2,0-0.1,0-0.1,0.1  s0,0-0.4,0.2c-0.4,0.1-0.1,0-0.3,0c-0.2,0-0.5,0.1-0.5,0.1s0.1,0.2,0.2,0.3c0.1,0.1-0.1,0-0.3,0c-0.2,0-0.2,0-0.4,0.1  c-0.2,0.1,0.3,0.1,0.6,0.3c0.3,0.2-0.2,0-0.5-0.1c-0.3-0.1-0.3,0-0.3,0l-0.2,0.1l0.4,0.2l0,0.1l-0.3-0.1c0,0-0.1-0.1-0.4-0.2  c-0.2-0.1,0.2,0.2,0.2,0.2l0.2,0.2l0.2,0.1l0.3,0l0.5,0.1l0.3,0.3c0,0-0.4-0.1-0.5-0.2c-0.1-0.1-0.2-0.1-0.2-0.1  c-0.1,0-0.1,0-0.1,0.1c0,0.1,0.1,0.1,0.1,0.2c0,0.1-0.1,0.1-0.1,0.1l-0.3,0c0,0-0.1-0.1-0.1-0.2c0-0.1,0.2-0.1,0.2-0.1s0-0.1,0-0.2  c0-0.2,0,0-0.3-0.2C281,6.2,281,6.1,281,6.1l-0.2-0.2c-0.2-0.2-0.2,0-0.5-0.2c-0.3-0.1-0.1,0-0.2,0.2c0,0.2-0.1,0.2,0,0.3  c0.1,0.1,0,0.1,0.1,0.1c0.1,0,0.3,0.1,0.5,0.2c0.2,0.1,0,0.1,0,0.1s-0.5-0.2-0.5-0.2s-0.3-0.1-0.6-0.2c-0.3,0-0.1,0-0.4,0  c-0.3,0-0.1,0-0.3-0.1c-0.2,0,0,0.1,0.2,0.1c0.1,0,0.3,0.1,0.3,0.1l0,0.1l-0.2,0.1c-0.2,0.1-0.1,0-0.2-0.2  c-0.1-0.2-0.3,0.1-0.3,0.1s0,0-0.3,0c-0.3,0-0.1,0-0.1-0.1c0-0.1,0,0-0.1,0c-0.1,0-0.2,0-0.3,0c-0.2,0,0,0-0.4,0.1  c-0.3,0.1-0.1,0.1-0.1,0.1s0,0-0.1,0.1c-0.1,0.1-0.1,0-0.5-0.1c-0.3-0.1,0.1-0.1,0.1-0.1s0.1-0.1,0.2-0.2c0-0.1-0.4,0-0.4,0  l-0.2,0.1c0,0,0.1,0.2,0.1,0.3c0,0.1,0,0.2-0.3,0c-0.3-0.1-0.2,0.1-0.3,0.1c0,0-0.2,0.1-0.2,0.2c0,0.1,0.1,0.2,0.1,0.2  s-0.2,0-0.3,0c-0.1,0-0.1-0.1-0.4-0.2c-0.2-0.1-0.1,0-0.1,0.1c0,0.1,0.2,0.1,0.3,0.2c0.1,0,0,0.1-0.2,0.1c-0.2,0-0.1,0-0.2-0.1  c-0.1,0-0.1-0.1-0.2-0.1c0-0.1-0.1-0.1-0.1-0.2c0-0.1,0.1,0,0-0.2c-0.1-0.1-0.1-0.1-0.3-0.1c-0.2,0-0.1-0.1,0-0.1  c0.1-0.1,0.3,0.2,0.5,0.2c0.2,0,0.3,0,0.4,0c0.1,0,0.2,0,0.4,0c0.2,0,0.2,0,0.3-0.1s0.1-0.1,0.1-0.1c0,0-0.1-0.2-0.1-0.2  s-0.3-0.1-0.4-0.2c-0.2,0-0.3-0.2-0.6-0.2c-0.3,0-0.2,0-0.4-0.1c-0.2,0-0.1,0-0.2-0.1c-0.1-0.1,0-0.1-0.1-0.1  c-0.1,0-0.3,0.1-0.3-0.1c0-0.1-0.1,0-0.1,0c-0.1,0-0.1-0.1-0.3-0.1c-0.2,0-0.1,0-0.2,0c-0.1,0-0.2,0-0.3,0.1c-0.1,0-0.1,0.1-0.2,0  c-0.1,0-0.1,0.2-0.2,0.1c-0.1,0,0-0.1-0.1-0.1c-0.1,0-0.1,0-0.1,0c0,0-0.1,0.1-0.2,0.1c-0.1,0,0,0-0.1,0c-0.1,0,0,0-0.1,0.1  c-0.1,0-0.1,0-0.1,0s-0.1,0-0.2,0c0,0-0.1,0-0.2,0c-0.1,0-0.1,0-0.4,0.2c-0.3,0.1,0,0,0.1,0c0.1,0,0.2,0,0.2,0s0.3-0.1,0.4-0.1  c0.1,0,0,0.1-0.1,0.1c-0.1,0,0,0-0.1,0.1c-0.1,0.1,0,0-0.2,0.1c-0.2,0.1-0.3,0.2-0.5,0.4c-0.2,0.2-0.2,0.1-0.2,0.2  c-0.1,0.1-0.3,0.1-0.6,0.3c-0.3,0.2,0.1,0,0.2,0c0.1,0-0.3,0.1-0.2,0.1c0,0-0.1,0.1-0.1,0c0-0.1-0.1,0-0.1,0  c-0.1-0.1-0.1,0.1-0.1,0.1c0,0.1-0.1,0-0.2,0.1c-0.1,0.1-0.1,0-0.1,0.1c0,0.1-0.2,0-0.2,0.1c0,0.1-0.2,0.1-0.2,0.1  s-0.2,0.1-0.2,0.1c-0.1,0-0.1,0.2-0.1,0.2s-0.1,0.1-0.2,0.1c-0.1,0,0,0,0,0.1c0,0,0,0,0,0.1c0,0-0.1,0-0.2,0c-0.1,0,0,0.1,0.1,0.1  c0.1,0,0.1,0,0,0.1c0,0.1-0.1,0-0.1,0.1c-0.1,0.1,0.1,0.1,0.1,0.1s0.1,0.1,0.3,0.1c0.2,0,0.2-0.1,0.3-0.2C269,9,269,9,269.1,9  c0.1,0,0.1-0.1,0.1-0.2c0.1-0.1,0,0.1,0.1,0.1c0,0.1,0,0,0,0.1c0,0.1,0,0.1,0,0.2s0,0.1,0,0.3c0,0.1,0,0.1,0,0.2c0,0.1-0.1,0-0.1,0  c-0.1,0,0,0.1,0,0.3s0.1,0,0.3,0c0.2,0,0.1,0,0.1-0.1c0.1-0.1,0,0,0-0.2c0-0.1,0.2,0,0.2,0h0.3c0.2,0,0.1-0.2,0.1-0.3  c0-0.1,0.1-0.1,0.1-0.2c0-0.1,0,0,0.1-0.1c0.1-0.1,0,0,0.1,0c0.1,0,0.2-0.1,0.2-0.1c0,0,0,0,0.1,0c0.1,0,0-0.1,0-0.1s0,0,0.1-0.1  c0,0,0.1,0,0.1-0.1c0-0.1-0.1-0.1-0.1-0.1l-0.1-0.1l0-0.2c0,0,0.2-0.2,0.2-0.2c0,0,0.1,0,0.2-0.2c0.2-0.1,0.2-0.1,0.3-0.1  c0.1,0,0.3-0.1,0.3-0.1s0.2-0.1,0.2-0.1c0,0,0-0.1,0-0.1c0,0,0.1-0.1,0.1-0.1c0,0,0.1,0,0.1-0.1c0.1-0.1,0.1,0.1,0.1,0.1h0.3l0.1,0  c0,0,0,0.1,0,0.1c0,0-0.4,0.1-0.4,0.1s-0.3,0.2-0.4,0.3C272,7.9,272,8,271.9,8c-0.1,0.1,0,0.2,0,0.2s-0.1,0.1-0.1,0.2  c-0.1,0.1,0.1,0.2,0.1,0.2c0,0,0.4,0,0.4,0s0.1,0,0.3,0c0.2,0,0.1,0,0.3-0.1c0.2-0.1,0.5-0.1,0.5-0.1s0.2,0.1,0.3,0.1  c0.1,0.1-0.2,0.1-0.2,0.1c0,0-0.2,0.1-0.2,0.1s-0.1,0-0.2,0c-0.1,0-0.2,0-0.3,0c-0.2,0-0.2,0-0.3,0.1c-0.1,0-0.1,0.1-0.2,0.1  c-0.1,0.1,0.1,0.2,0.1,0.2c0.1,0.1,0,0,0,0.1c0,0,0,0.1-0.1,0.2c-0.1,0.1-0.1,0-0.1-0.1c-0.1-0.1-0.1-0.1-0.3-0.1  c-0.1,0-0.2,0.3-0.3,0.3c0,0,0,0.1,0,0.1s-0.1,0.1-0.1,0.2c0,0.1,0,0.1,0,0.1s0,0.1-0.1,0.1c-0.1,0-0.2,0-0.2,0s-0.1,0.1-0.1,0.1  c0,0,0,0-0.1,0c-0.1,0-0.2,0-0.2,0c0,0,0-0.1-0.1-0.1c-0.2,0-0.3,0.1-0.5,0.2c-0.2,0-0.5,0.1-0.6,0.1s0,0-0.1-0.1  c-0.1-0.1-0.1-0.1-0.1-0.1c0,0-0.1,0-0.2,0c-0.1,0,0,0-0.2,0.1s-0.1,0-0.1,0s0,0-0.2-0.1c-0.1-0.1,0,0-0.1-0.1c0,0-0.1-0.1-0.1-0.1  s-0.1,0-0.2,0c0,0,0,0,0,0.1c0,0.1-0.1,0.1-0.2,0.1c-0.1,0.1-0.1,0-0.3,0.1c-0.2,0.1-0.1,0.1-0.1,0.1s0,0-0.1-0.1  c-0.1,0-0.1,0-0.2,0c-0.1,0-0.2,0.1-0.3,0.1c-0.1,0.1,0,0-0.1,0.2c-0.1,0.1-0.1,0.1-0.3,0.2c-0.2,0.1-0.3,0.2-0.5,0.3  c-0.1,0-0.1,0-0.2,0c-0.1,0-0.2,0.2-0.2,0.2s-0.1,0.1-0.1,0.2c-0.1,0.1-0.1,0-0.2,0c-0.1,0-0.1,0-0.1,0.1s0,0-0.1,0.2  c-0.1,0.1,0,0-0.1,0c-0.1,0-0.1,0-0.2,0c0,0,0,0,0-0.1c0-0.1-0.1,0-0.1,0c-0.1,0,0,0.1-0.1,0.2c0,0.1-0.1,0.1-0.2,0.1  c-0.2,0-0.1,0-0.1-0.1c0-0.1,0,0-0.1,0c-0.1,0-0.2,0.1-0.3,0.1c-0.1,0-0.2,0.2-0.2,0.2s0.1,0.1,0.2,0.1c0.1,0,0.1,0.1,0.1,0.1  c0,0,0,0.1,0,0.1s0,0.1,0,0.2c0,0.1,0.1,0.1,0.1,0.2c-0.1,0.1,0,0.1,0,0.2c0,0.1-0.1-0.1-0.1,0c-0.1,0.1,0,0.1,0,0.2  c0,0.2,0,0.1,0,0.3c0,0.2-0.3,0.4-0.3,0.4h-0.2c0,0-0.2-0.1-0.3-0.1c-0.2,0,0,0-0.4-0.1c-0.4-0.1-0.5,0-0.5,0l-0.3,0.2  c0,0-0.2,0.2-0.3,0.3c-0.1,0.1-0.1,0.2-0.1,0.4c-0.1,0.2-0.1,0.2-0.2,0.4c-0.1,0.2-0.1,0.1-0.4,0.5c-0.3,0.3,0,0.3-0.2,0.4  c-0.2,0.2,0.1,0.3,0.3,0.3c0.2,0,0.1,0.1,0.2,0.3c0,0.2,0.1,0.1,0.3,0c0.1-0.1,0.1-0.1,0.2-0.1s0.1,0.1,0.3,0.1  c0.1,0,0.2,0,0.2-0.1c0-0.1,0.1,0,0.1,0s0.2,0,0.2-0.2c0-0.1,0.1-0.1,0.1-0.1c0,0,0.3-0.1,0.3-0.1s0.1-0.1,0.1-0.2  c0-0.1,0.1-0.1,0.2-0.2c0.1-0.1,0-0.3,0-0.4c0-0.1,0.1,0,0.1-0.1c0.1,0,0,0,0,0l0,0h0.2c0.2,0,0.1-0.3,0.1-0.3s0-0.1,0-0.2  c0-0.1,0.1-0.1,0.2-0.1c0,0,0.1,0,0.2,0c0.1,0,0.2-0.1,0.2-0.1s0.1-0.1,0.1-0.2c0,0,0.2-0.1,0.2-0.1s0-0.1,0.1-0.2  c0-0.1,0-0.1,0-0.2c0-0.1,0-0.1,0.1-0.1c0.1,0,0.1,0,0.2-0.1c0.1-0.1,0,0,0.1,0c0.1,0,0.2,0.1,0.2,0.1s0.1,0,0.3,0.1  c0.2,0.1,0.1,0.1,0.2,0c0.1-0.1,0.2-0.1,0.2-0.2c0.1-0.1,0,0,0.2-0.1c0.1-0.1,0,0,0.1-0.1c0.1-0.1,0,0,0.2-0.1c0.2,0,0.2-0.1,0.2,0  c0.1,0.1,0.1,0.1,0.2,0.1c0.1,0,0,0.1,0,0.2c0,0.1,0,0.1,0.1,0.3c0.1,0.2,0.1,0.2,0.2,0.2c0.1,0.1,0.1,0.1,0.2,0.3  c0.1,0.2,0.1,0.1,0.3,0.1c0.2,0,0.1,0.2,0.2,0.2c0.1,0,0.1,0,0.1,0.1s0,0.1,0.2,0.1c0.2,0,0.2,0.3,0.2,0.3c0,0,0,0.2,0,0.2  c-0.1,0.1-0.1,0.1-0.1,0.1c0,0.1-0.1,0-0.1,0.1c0,0,0,0.1,0.1,0.1c0.1,0,0.1-0.1,0.2-0.1c0.1,0,0.1-0.1,0.1-0.1s0-0.1,0.2-0.1  c0.1-0.1,0.1-0.1,0.1-0.1l-0.1-0.2c0,0-0.1-0.1-0.1-0.2c-0.1-0.1,0.1-0.2,0.1-0.2l0.3,0c0,0,0.1,0.1,0.1,0.1  c0.1,0.1,0.1,0.1,0.1,0.1c0,0,0.1-0.1,0.1-0.1s0-0.1-0.2-0.3c-0.2-0.3-0.1-0.1-0.2-0.1c-0.1-0.1-0.3-0.1-0.3-0.1s0-0.1,0-0.2  c0-0.1-0.2,0-0.2,0s-0.1,0-0.2,0c-0.1,0-0.1-0.1-0.1-0.1s-0.1-0.1-0.2-0.1c-0.1-0.1,0-0.1,0-0.1c0,0,0-0.1,0-0.2S268.1,14,268,14  c-0.1-0.1-0.2-0.2-0.1-0.3c0-0.1,0.1-0.1,0-0.2c-0.1-0.1,0.1-0.1,0.4-0.1c0.2,0,0,0.1,0.1,0.2c0.1,0.1,0.1-0.1,0.2-0.1  c0.1-0.1,0.1,0,0.1,0.1c0,0.1,0,0.1,0.1,0.3c0,0.2,0.1,0.1,0.3,0.2c0.2,0,0.1,0.1,0.2,0.2c0.1,0.1,0.2,0.1,0.3,0.2  c0.1,0.1,0.1,0.1,0.2,0.2c0.2,0.1,0.1,0.1,0.1,0.2c0.1,0.1,0,0.1-0.1,0.2c-0.1,0.1,0,0.1-0.1,0.2c-0.1,0.1-0.1,0.2,0,0.2  c0,0,0.1,0,0.1,0c-0.1,0.1,0,0.1,0.1,0.2c0.1,0.1,0,0.1,0.1,0.2s0,0.1,0.1,0.2c0,0.1,0,0.1,0.1,0.2c0.1,0.1,0.1,0.1,0.2,0.1  c0,0,0.1,0,0.2,0c0.1,0,0.2,0,0.2,0s0.2,0,0.2,0c0,0,0.2,0.3,0.2,0.3s0.1,0,0.1,0c0-0.1,0-0.1,0-0.1c0-0.1,0.1,0,0.1-0.1  c0-0.1-0.1-0.2-0.1-0.2s-0.1-0.1-0.2-0.3c-0.1-0.1-0.2-0.2-0.2-0.3c0-0.2,0.1-0.1,0.1-0.1c0,0,0.1,0.2,0.2,0.1c0.1,0,0.1-0.1,0-0.2  c0-0.1,0.1,0,0.2-0.1c0.1-0.1,0.1,0,0.2,0c0.1,0,0.1,0,0.1-0.1c0.1,0,0.2,0.1,0.2,0.1s0.1,0,0.2,0.1c0.1,0,0.1,0,0.2,0  c0.1,0,0.1,0,0.3-0.1c0.2-0.1,0,0,0.2,0c0.2,0,0.2,0,0.4,0c0.2,0,0.1,0.1,0.1,0.1c0,0,0,0-0.2,0c-0.1,0,0,0.2,0,0.3  c0,0.1-0.3,0.2-0.3,0.2h-0.4c-0.2,0-0.1-0.2-0.2-0.1c-0.1,0-0.1,0-0.2,0.1c-0.1,0.1,0,0.1,0.2,0.1c0.1,0,0.1,0,0.1,0.1  c0,0.1,0,0.1,0.1,0.1c0.1,0.1,0,0,0,0.1c0,0.1-0.2,0-0.2,0s-0.1,0.1-0.1,0.1s0.2,0,0.4,0.1c0.2,0,0,0.2,0,0.3c0,0.1,0,0.1,0.2,0.1  c0.2,0,0.1,0,0.2,0.1c0.1,0.1,0.1,0,0.2,0c0.1,0.1,0,0.2,0.1,0.2c0.1,0,0.2,0,0.4,0c0.2,0,0.1-0.1,0.1-0.2c0-0.1,0.1-0.1,0.4,0  c0.2,0.1,0.3,0.2,0.3,0.2c0.1,0,0.3,0,0.3,0c0.1,0,0.3-0.1,0.5-0.3s0.1,0,0.3,0.1c0.2,0.1,0.1-0.1,0.2-0.1c0.1,0,0,0.1,0,0.2  c0,0.1,0,0.1,0,0.2c0,0.1,0,0.1,0.1,0.1c0.1,0-0.1,0.1,0,0.3c0.1,0.2,0,0.1-0.1,0.3c0,0.1-0.2,0.4-0.2,0.6c0,0.2-0.1,0.5-0.2,0.6  c-0.1,0.1-0.1,0-0.4,0.1c-0.3,0-0.3,0-0.4,0c-0.1,0-0.1,0-0.1-0.1c0-0.1-0.1,0-0.3,0c-0.1-0.1-0.1,0-0.3,0c-0.2,0,0,0.1-0.1,0.1  c-0.1,0,0,0-0.2,0.1c-0.2,0.1-0.1,0-0.5,0c-0.4-0.1-0.1,0-0.5-0.1c-0.4-0.1-0.3-0.1-0.6-0.1s-0.1,0-0.1-0.2c0-0.2,0,0-0.2-0.1  c-0.2-0.1-0.2,0-0.5,0c-0.3,0-0.1,0-0.1-0.1c0-0.1,0-0.1-0.1-0.1s-0.1,0-0.4,0s-0.2,0-0.4,0.1c-0.2,0.1-0.2,0.3-0.2,0.4  c0,0.1,0,0.2,0,0.4c0,0.1-0.3,0.3-0.7,0.1c-0.4-0.2-0.4-0.3-0.6-0.3c-0.2,0-0.4-0.2-0.4-0.3c-0.1-0.1-0.2-0.2-0.2-0.2  c0,0-0.5-0.1-0.5-0.1l-0.5-0.1c0,0-0.1,0-0.2-0.1c-0.1-0.1-0.2-0.1-0.3-0.4c-0.1-0.3,0.2-0.3,0.2-0.3s0-0.1,0.3-0.3  c0.3-0.2-0.1-0.1-0.1-0.3c-0.1-0.2,0.1-0.1,0.3-0.3c0.1-0.1-0.1-0.1-0.2,0c-0.1,0.1-0.1,0.1-0.1-0.1c-0.1-0.1-0.3,0.1-0.3,0.1h-0.4  c0,0-0.3-0.1-0.6,0.1c-0.3,0.1-0.2,0-0.4-0.1c-0.1-0.1-0.4,0.1-1,0.1c-0.6,0-0.9,0.5-1.1,0.5c-0.2,0.1-0.3,0-0.4,0  c-0.1-0.1-0.3,0-0.3,0s-0.3,0-0.3-0.2c0-0.2-0.3,0.1-0.3,0.4c-0.1,0.4-0.5,0.5-0.8,0.7c-0.4,0.2-0.6,1-0.7,1.4  c-0.1,0.3-0.5,0.8-0.7,0.8s-0.4,0.3-0.5,0.5c-0.1,0.2-0.2,0.2-0.3,0.4c-0.1,0.2-0.3,0.6-0.4,0.7c-0.1,0.1-0.1,0.1-0.1,0.2  c0,0.1-0.1,0.4-0.3,0.8c-0.2,0.4-0.2,0.6-0.1,0.8c0,0.1,0.1,0.4,0,0.4c-0.1,0,0,0.2,0,0.5c0,0.3,0,1,0,1.1c0,0.1,0,0.3,0,0.4  c0,0.2-0.3,0.3-0.2,0.5c0.1,0.2,0.2,0.3,0.1,0.5c-0.1,0.1,0,0.4,0,0.4s0,0.1,0.1,0.2c0,0.1,0.1,0.2,0.2,0.2c0.1,0,0.1,0,0.1,0.1  c0,0.1,0,0.1,0,0.2c0.1,0.1,0.1,0,0.1,0.1c0.1,0.1,0,0.1,0.1,0.2c0.1,0.1,0.1,0.2,0.2,0.3c0.1,0.1,0.1,0.2,0.2,0.3  c0,0.1,0,0.1,0,0.2c0,0.1,0,0.1,0,0.2c0,0.1,0.1,0.1,0.2,0.2c0.1,0.1,0,0.1,0.1,0.2c0.2,0.1,0.1,0,0.1,0.2c0.1,0.1,0.1,0.1,0.3,0.2  c0.2,0.1,0.2,0.2,0.3,0.5c0.1,0.3,0.4,0.3,0.6,0.4c0.1,0.1,0.1-0.1,0.1-0.1c0,0,0.1-0.1,0.1-0.1s0.1-0.1,0.1-0.1  c0.1,0,0.1,0,0.3-0.1c0.1,0,0.2,0,0.4,0c0.2,0,0.1,0,0.2,0c0.1,0,0.1,0,0.2,0.1c0.2,0.1,0.1,0,0.2,0c0.1,0,0.1-0.1,0.1-0.1  c0-0.1,0.1,0,0.2-0.1c0.1,0,0.1,0,0.2-0.1c0.1-0.1,0.2-0.1,0.3-0.1c0.1,0,0.1,0,0.2-0.1c0-0.1,0.1-0.1,0.1-0.1c0,0,0.1,0,0.2,0  c0.1,0,0.1,0,0.1,0s0.1,0,0.2,0c0.1,0,0.1,0.1,0.1,0c0-0.1,0.1-0.1,0.1,0c0,0.1,0.1,0,0.1,0c0.1,0,0.1,0,0.3,0.2  c0.2,0.2,0.1,0.2,0.2,0.2c0,0,0.1,0.1,0.1,0.1c0.1,0,0,0.1,0,0.2c0,0.1,0,0,0,0.1c0,0.1,0.1,0.1,0.2,0.2c0.1,0.1,0.1,0.1,0.2,0  c0.1,0,0.1,0,0.2,0c0.1,0,0-0.1,0.1,0c0.1,0.1,0-0.1,0.1-0.1c0,0,0,0,0.2,0c0.2,0,0.1-0.1,0.1-0.1s0.1,0.1,0.2,0.1  c0.1,0,0.1,0.1,0.1,0.2c0,0.1,0.1,0.1,0.2,0.1c0.1,0,0.1,0.1,0.2,0.2c0.1,0.1,0.1,0,0,0.1c0,0.1,0,0.3,0,0.4c-0.1,0.1,0,0.1,0,0.2  c0,0.1,0,0.2,0,0.5c0,0.3-0.1,0.6-0.2,0.7c-0.1,0.1,0.1,0.1,0.2,0.1c0.1,0.1,0.1,0.1,0.2,0.2c0.1,0.1,0.1,0.3,0.2,0.3  c0.1,0,0.2,0,0.2,0.1c0,0.1,0.1,0.1,0.3,0.3c0.2,0.2,0.3,0.3,0.4,0.5c0.1,0.2,0,0.1,0.2,0.4c0.2,0.2,0.3,0.5,0.5,0.8  c0.1,0.2,0.3,0.3,0.1,0.5c-0.2,0.2,0,0.1,0.3,0.4c0.3,0.2,0.4,0.8,0.3,1c-0.1,0.2-0.3,0.3-0.3,0.6c0,0.3,0,0.6,0,0.8  c0,0.2,0.1,0.4,0.1,0.4s0,0.2,0.2,0.5c0.2,0.3,0.9,1,1.2,1.2c0.3,0.2,0.2,0.6,0.4,0.9c0.2,0.3,0.5,0.7,0.7,1  c0.2,0.3,0.3,0.2,0.4,0.4c0.2,0.2,0.8,0.9,0.9,1c0.1,0.1-0.1,0.1,0,0.2c0.1,0.1,0.2,0.2,0.3,0.2c0.1,0,0.1,0,0.2,0.1  c0.1,0.1,0.1,0,0.2-0.1c0.1-0.1,0.1,0,0.3,0c0.2,0.1,0-0.1,0.1-0.2c0.1-0.1,0.1,0,0.2,0c0.1,0,0.1,0,0.2,0c0.1,0,0.1,0,0.2,0  c0.2,0,0,0,0.1,0c0.1,0,0.1,0,0.1-0.1c0-0.1,0.1-0.1,0.1-0.1l0.3-0.1c0,0,0.1-0.1,0.2-0.3c0.1-0.2,0.1-0.2,0.2-0.3  c0.2,0,0-0.1,0.1-0.2c0-0.1,0.1-0.2,0.2-0.3s0.1-0.2,0.2-0.2c0.1,0,0-0.1,0-0.2c0-0.1,0-0.1,0.1-0.3c0.1-0.2,0-0.1,0-0.3  c0-0.2,0,0-0.1-0.1c-0.1-0.1,0.1-0.2,0.1-0.2l0.2-0.1l0.4-0.1l0.1-0.1c0,0,0-0.1,0-0.2c0-0.1,0-0.2,0-0.2s0-0.1,0-0.2  s0-0.1-0.1-0.2c-0.1-0.1,0-0.1,0-0.2c0-0.1-0.1-0.3-0.2-0.5c0-0.1,0-0.1,0.1-0.2c0.1-0.1,0.1-0.1,0.1-0.2c0.1-0.1,0.1-0.1,0.3-0.2  c0.2-0.1-0.1,0,0.1-0.2c0.2-0.2,0.1-0.1,0.4-0.3c0.3-0.2,0.4-0.1,0.4-0.1l0.2-0.2l0.2-0.2l0.1-0.3l0.2-0.1c0,0,0-0.1,0-0.3  c-0.1-0.2-0.1-0.3-0.1-1c0-0.7,0-0.2-0.1-0.4c-0.1-0.3,0,0-0.2-0.1c-0.2-0.1,0-0.3,0-0.5c0-0.2-0.2-0.5-0.2-0.5s0-0.2,0-0.3  c0.1-0.1-0.4-0.1-0.4-0.1v-0.5v-0.3l0.4-0.3c0,0,0.2-0.3,0.2-0.4c0-0.1,0.1-0.1,0.3-0.3c0.2-0.2,0,0,0.1-0.1c0-0.1,0.3-0.1,0.3-0.1  s0.2-0.1,0.3-0.4c0,0,0.4-0.6,0.8-0.9c0.4-0.3,0.7-0.5,1.8-1.8c1.1-1.3,1.1-2.5,1.1-2.8c0-0.4-0.3,0-0.4,0.1  c-0.1,0.1-0.5,0-0.8,0.1c-0.4,0.1-0.8,0.1-0.8,0.1s-0.5,0.1-0.7,0.1c-0.3,0-0.4-0.2-0.4-0.7c0-0.5-0.8-0.9-0.8-0.9l-1-0.7  c0,0-0.1-0.4-0.2-0.8c-0.1-0.4-0.1-0.4-0.5-0.7c-0.4-0.3-0.4-0.5-0.4-0.9c0-0.5-0.2-0.5-0.3-0.6c-0.1-0.1-0.4-0.4-0.4-0.5  c0-0.1,0-0.1,0.1-0.3c0.1-0.1-0.2-0.4-0.2-0.4s-0.2-0.2-0.3-0.6c-0.1-0.3-0.1-0.2-0.3-0.8c-0.2-0.6-0.4-0.6-0.5-0.8  c-0.1-0.2,0.8,0.9,0.8,0.7c0-0.2,0.1-0.4,0.3-0.6c0.1-0.2,0,0.3-0.1,0.6c-0.1,0.3,0.2,0.3,0.2,0.3l0.6,0.6c0,0,0,0.4,0.5,0.9  c0.4,0.5,0.3,0.4,0.5,0.8c0.2,0.4,0,0.3,0.3,0.7c0.2,0.4,0.5,0.4,0.7,0.8c0.2,0.4,0.4,0.7,0.6,1c0.2,0.3,0.2,0.4,0.2,0.5  s0,0.6,0.1,0.7c0.1,0.1,0.3,0.8,0.6,0.8c0.4,0.1,0.3-0.3,0.6-0.3c0.3,0,0.3,0,0.6-0.1c0.3-0.1,0.2-0.1,0.4-0.1  c0.2,0,0.2-0.1,0.5-0.4c0.3-0.3,0.2-0.1,0.8-0.2c0.6,0,0.3-0.4,0.3-0.4s0.1-0.2,0.6-0.5c0.5-0.2,0.2,0,0.5-0.2  c0.3-0.2,0-0.2,0.2-0.3c0.2,0,0.3,0,0.4-0.3c0.1-0.3,0.2-0.1,0.5-0.2s0-0.1-0.1-0.5c0-0.4,0-0.3,0.3-0.2c0.3,0.1,0-0.2,0.2-0.6  c0.2-0.4,0.2-0.5,0.1-0.7c-0.1-0.1-0.5-0.3-0.5-0.3s-0.3-0.2-0.7-0.4c-0.4-0.2-0.1-0.1-0.2-0.3c-0.1-0.2-0.1-0.2-0.1-0.5  c-0.1-0.3-0.1,0.1-0.3,0.2c-0.2,0.1-0.2,0.2-0.3,0.3c-0.1,0.2,0,0.2-0.2,0.3c-0.2,0.1-0.2,0.1-0.4,0c-0.2,0-0.2,0.1-0.4,0.1  c-0.2,0-0.2-0.1-0.3-0.3c-0.1-0.2-0.6-0.5-0.6-0.5l0-0.4l-0.3-0.3c-0.3-0.3-0.2-0.4-0.2-0.4l-0.4-0.2c0,0-0.2-0.1-0.6-0.3  c-0.4-0.2,0-0.2,0.1-0.3c0.1-0.1,0.1,0,0.4,0c0.3,0,0.2,0,0.2-0.2c0-0.2,0.1,0.1,0.5,0.1c0.3-0.1,0,0,0.2,0.3  c0.2,0.2,0.4,0.7,0.8,0.8c0.4,0.1,0.3,0.3,0.3,0.3s0.1,0.1,0.4,0.2c0.3,0.1,0.3,0,0.8-0.1s0.3,0,0.6,0.4c0.3,0.4,0.1,0.1,1,0.2  c0.2,0,0.3,0,0.3,0.1c0,0,0,0,0,0.1c0.2,0.2,0.3-0.1,0.3-0.1s0.1,0.1,0.1,0.1c0,0,0.4-0.2,0.7-0.2c0.3,0,0.7-0.1,0.9,0  c0.2,0.1,0.2,0.3,0.3,0.2c0.2,0,0.1,0.2,0.3,0.5c0.1,0.3,0.3,0.1,0.3,0.1s0,0.2,0.1,0.2c0.1,0.1,0.3,0.2,0.5,0.2  c0.2,0,0.2,0,0.1,0.1c-0.1,0.1-0.2,0.2-0.4,0.1c-0.2-0.1,0,0.3,0.4,0.6c0.4,0.4,0.4,0.1,0.6,0c0.3,0,0.1-0.4,0.1-0.6  c0.1-0.2,0.2,0.3,0.1,0.6c0,0.3,0.1,0.4,0.2,0.6c0.1,0.3,0,0.5,0.3,1.5c0.3,1,1,3.2,1.3,3.6s0.3,0.3,0.4,0c0.1-0.2,0.3-0.2,0.3-0.2  s0-0.2,0-0.2c0-0.1,0-0.1,0.2-0.3s0-0.1,0-0.1s0-0.1,0-0.3c0-0.3,0.1-0.3,0.1-0.3l0.1-0.3c0,0,0-0.3,0-0.7c0-0.4-0.1-0.5,0-0.7  c0-0.2,0-0.1,0.2-0.1c0.1,0,0.1-0.1,0.1-0.2c0-0.1,0.1,0,0.1,0c0.1,0,0.2-0.1,0.2-0.2c0-0.1,0.2-0.3,0.2-0.3s0.1-0.3,0.2-0.4  c0.1-0.1,0.1-0.2,0.2-0.3c0.1-0.1,0.2-0.1,0.2-0.3c0-0.1,0-0.1,0.1-0.1c0.1,0,0.1,0,0.2,0c0,0,0.2-0.3,0.2-0.3s0-0.1,0-0.3  c0-0.2,0-0.1,0.1-0.2c0.1-0.1,0-0.1,0.1-0.2c0-0.2,0.1,0.1,0.1,0.1l0.2,0l0,0.1l0.1,0.1h0.2l0.1-0.2c0,0,0-0.2-0.1-0.3  c0-0.1,0.2-0.3,0.2-0.3l0.1,0.2c0,0,0.1,0.3,0.1,0.5c0,0.3,0.2,0,0.2,0s0,0.1,0,0.2c0,0.1,0.2,0.2,0.2,0.2l0.1,0.2l0.1,0.2  c0,0,0,0.1,0,0.3c0,0.2,0,0.2,0.1,0.1c0.1-0.1,0.1-0.1,0.1-0.1s0.2,0.6,0.2,0.6s0,0.4,0,0.6c0,0.2,0,0.1,0.1,0.2  c0,0,0.2,0.1,0.2,0.1c0,0,0-0.2,0.2-0.3c0.1-0.2,0.1-0.1,0.2-0.3c0-0.2,0.2,0.1,0.3,0.4c0.1,0.2,0.2,0.6,0.2,1.1  c0.1,0.5,0.1,0.6,0,1.1c-0.1,0.5-0.1,1.1-0.2,1.5c0,0.4,0.2,0.7,0.3,0.8c0,0.1,0,0.4,0,0.6c0,0.2,0.1,0.6,0.1,0.6s0,0.4,0,0.6  c0,0.2,0.1,0.3,0.2,0.5c0.1,0.2,0.2,0.1,0.2,0c0.1-0.1,0.1-0.1,0-0.5s0-0.2,0.1-0.7c0.1-0.5,0-0.8-0.1-0.9  c-0.1-0.2-0.1-0.2-0.3-0.3c-0.1,0-0.1-0.2,0-0.5c0-0.3-0.1-0.2,0-0.5s0-0.1-0.1,0c-0.1,0.1,0,0-0.1-0.2c0-0.2,0-0.3,0-0.4  c0-0.2,0-0.2,0.2-0.7c0.2-0.5,0-0.1,0-0.3c0-0.1,0.1-0.3,0.1-0.4c0-0.1,0.1,0.1,0.1,0.2c0,0.1,0,0.1,0,0.2c0.1,0.1,0.3,0,0.3,0.1  c0,0.1,0.1,0.3,0.1,0.3s0,0.1,0.1,0.3c0,0.2,0.1,0.2,0.2,0.3c0.1,0.1,0,0.2,0,0.2l-0.1,0.2c0,0,0,0.2,0.1,0.1  c0.1,0,0.1-0.1,0.2-0.3c0.2-0.3,0-0.3,0.1-0.4c0-0.2,0.1,0,0.3-0.2c0.1-0.2,0.1-0.5,0.2-0.7c0-0.2,0-0.3,0-0.4c0-0.1,0-0.4-0.1-0.6  c0-0.2-0.1-0.2-0.2-0.6c-0.1-0.5-0.4-1-0.5-1.2c-0.1-0.1,0-0.4,0-0.6c0-0.2,0.1-0.4,0.1-0.5c0-0.2,0-0.3,0.2-0.3  c0.2,0,0,0.2,0.2,0.5c0.2,0.3,0.2-0.3,0.2-0.7c0-0.4,0.2-0.3,0.4-0.6C301,22.3,300.8,22,300.8,22 M275.8,38c-0.1,0.1-0.2,0-0.1,0.2  c0.1,0.2,0.2,0.2,0.2,0.4c0,0.1-0.1,0.5-0.2,0.2c-0.1-0.3,0-0.1-0.1-0.5c-0.1-0.4-0.1-0.1-0.1-0.6c0-0.5,0-0.4-0.1-0.5  c-0.1-0.2-0.1-0.2-0.1-0.2c0.2,0,0.3,0.2,0.3,0.2v0.3v0.2C275.7,37.7,275.9,37.9,275.8,38 M274.5,33.1l0.3-0.2c0,0,0.3,0,0.4,0.1  c0,0,0.1,0.2,0.3,0.2c0.2,0-0.2,0.1-0.2,0.4c0,0.3-0.1,0.1-0.2,0.2c-0.1,0.1,0,0.1,0,0.2c0,0.1,0,0.1-0.1,0.2c-0.1,0.1-0.1,0-0.4,0  c-0.3,0-0.2,0.1-0.2,0.1l0,0c0,0,0,0,0,0l-0.2-0.4l-0.1-0.4L274.5,33.1z M273.9,36.4c-0.1-0.1-0.1-0.4-0.1-0.4l-0.2-0.4l-0.1-0.4  l-0.1-0.4c0,0,0-0.2,0-0.4c0,0,0.1,0.2,0.2,0.3c0,0.1,0,0.4,0,0.6c0,0.2,0,0.2,0.3,0.3c0.3,0.1,0.1,0.1,0.2,0.4  c0.1,0.3,0.1,0.1,0.2,0.6C274.2,37.1,274,36.6,273.9,36.4 M277.2,14.8c-0.1,0.1-0.4,0.2-0.5,0.2c-0.1-0.1-0.4,0.1-0.4,0.1  s-0.4,0-0.4-0.1c0-0.1-0.3,0-0.3-0.1c0-0.1-0.4,0-0.4-0.1c0-0.2-0.7,0-1,0.2c-0.3,0.2-0.7,0.2-0.8,0.1c-0.2-0.1-0.7-0.4-0.6-0.5  c0.1,0,0-0.3,0.1-0.3c0.1,0,0.2-0.2,0.1-0.2c0-0.1,0-0.1,0.1-0.2c0.1-0.1,0-0.1,0-0.2c0-0.1,0.1,0,0.2,0c0.1-0.1,0.1,0,0.1-0.1  c0.1,0,0-0.1,0-0.2c0-0.1,0-0.2,0.2-0.1c0.2,0.1,0.2-0.1,0.3-0.1c0.2-0.1,0.1,0,0.2,0.1c0.1,0.1,0.1,0.1,0.3,0.1  c0.2,0,0.6,0,0.8-0.1c0.2-0.1,0.1-0.1,0.4-0.2c0.3-0.1,0.3,0,0.5-0.1c0.2-0.1,0.4,0,0.3,0.1c-0.1,0-0.4,0.2-0.4,0.3  c0.1,0.1,0,0-0.1,0.1c-0.1,0.1-0.2,0.2-0.6,0.2c-0.5,0-0.2,0-0.5-0.2c-0.4-0.1-0.3,0-0.3,0.2c0,0.2,0.1,0.4,0.4,0.3  c0.3-0.1,0.2,0,0.3-0.2c0.1-0.2,0.3,0,0.5,0c0.3-0.1,0,0.1,0.5,0.3c0.4,0.2,0.2,0.2,0.6,0.4c0.3,0.3,0.3,0.1,0.6,0.2  C277.4,14.6,277.3,14.7,277.2,14.8 M282,16.6c0,0.1-0.1,0.1-0.4,0.1c-0.3,0.1-0.5,0-0.5,0c0,0-0.1,0-0.2-0.1  c-0.1-0.1-0.1-0.1-0.2-0.2c-0.2-0.2-0.5,0-0.6-0.1c0,0-0.1-0.1-0.1-0.1c0-0.1,0-0.1,0-0.1c0-0.2-0.1-0.3,0-0.3c0,0,0.1,0,0.1-0.1  c0,0,0-0.1,0-0.1c0-0.1,0-0.1,0-0.1c0,0,0,0,0,0c0,0,0-0.1,0-0.1c0,0,0,0,0,0.1c0.1,0,0.3-0.1,0.3-0.1c0,0-0.1,0-0.3-0.1  c-0.1,0-0.1-0.1-0.1-0.1c-0.1-0.1-0.1-0.1-0.1-0.2c-0.1-0.1-0.1-0.1-0.3-0.2c-0.1-0.1-0.1-0.1-0.3-0.2c-0.1,0-0.1-0.1-0.2-0.2  c0-0.1-0.1-0.1-0.1-0.1c-0.1-0.1,0-0.3,0-0.3c0,0-0.1,0-0.1,0c-0.1,0-0.2-0.1-0.2-0.2c0,0,0,0,0.1-0.2c0.1-0.1,0.1-0.1,0.1-0.2  c0,0,0.1-0.1,0.2-0.1c0.1,0,0.1,0,0.2-0.1c0.1,0,0,0,0.1-0.1c0.1-0.1,0.1-0.1,0.2-0.1c0,0,0-0.1,0.1-0.1c0,0,0.1,0,0.1,0  c0.2,0,0.5,0,0.5,0c0.1,0,0.1,0,0.1,0c0.1,0,0.2,0.1,0.3,0.2c0,0.1,0,0.1,0,0.2c0,0.1,0.1,0.1,0.2,0.1c0.1,0,0.2,0,0.2,0  c0.1,0,0.1,0.2,0,0.2c-0.1,0-0.2,0-0.3-0.1c-0.2-0.1-0.3-0.2-0.4-0.2c0,0,0,0-0.1,0.1c-0.1,0.1-0.2,0.1-0.2,0.2  c0,0-0.1,0.1-0.1,0.2c0,0.1,0.2,0.1,0.4,0.3c0.3,0.2,0.4,0.3,0.5,0.5c0,0,0,0.1,0.1,0.2c0,0.1,0.1,0.1,0.2,0.1c0,0,0,0,0-0.1  c0-0.1,0-0.2,0-0.2c0.1,0,0.2,0.1,0.2,0.1c0.1,0.1,0.1,0.1,0.2,0.2c0.1,0,0.1,0,0.2,0.1c0,0,0.1,0.1,0,0.1c0,0,0,0-0.1,0  c-0.2,0-0.3,0-0.4,0c0,0-0.1,0-0.1,0.1c0,0.1-0.1,0.2,0,0.2c0,0,0.1,0,0.2,0c0.1,0,0.2,0,0.2,0.1c0,0,0,0.1-0.1,0.1  c0,0.1-0.1,0.1-0.1,0.1c0,0,0.2,0,0.3,0.1c0.1,0.1,0.1,0.2,0.2,0.5C281.9,16.5,282,16.5,282,16.6 M282.5,13.8  C282.5,13.8,282.4,13.8,282.5,13.8c-0.2,0-0.1-0.1-0.1-0.3c0-0.1,0-0.2,0-0.2c0-0.1,0.2-0.1,0.2-0.1c0,0-0.1,0.1-0.1,0.2  c0,0.1,0.1,0.1,0.1,0.2C282.6,13.6,282.6,13.7,282.5,13.8 M283.1,13.8c0,0.1-0.1,0.1-0.1,0.1c-0.1,0-0.2-0.1-0.2-0.1  c0-0.1,0.1-0.1,0.1-0.2c0-0.1-0.2-0.1-0.1-0.2c0-0.1,0.1-0.1,0.1-0.1c0,0,0,0.1,0,0.1C282.9,13.6,283.1,13.6,283.1,13.8   M283.1,13.1c0,0-0.1,0-0.2,0c-0.1,0-0.2-0.1-0.2-0.1c0,0,0.1-0.1,0.1-0.1c0.1,0,0.2,0,0.2,0c0.1,0,0.2,0.1,0.2,0.1  C283.2,13.1,283.1,13.1,283.1,13.1 M288.2,12.9c0,0.1-0.1,0.1-0.2,0.1c-0.1,0-0.2,0-0.5-0.1c-0.2,0-0.3-0.1-0.4,0  c0,0-0.1,0.1-0.1,0.1c-0.1,0.2,0.2,0.4,0.1,0.4c0,0-0.1,0-0.1,0c-0.2-0.1-0.2-0.3-0.2-0.3c0,0,0-0.1,0-0.2c0,0,0.1-0.2,0.2-0.2  c0.1-0.1,0.2,0,0.5,0.1c0.2,0,0.4,0.1,0.5,0c0.1,0,0.1-0.1,0.2-0.1C288.2,12.8,288.2,12.9,288.2,12.9 M292.6,11.1  c-0.1,0-0.2,0-0.3-0.1c-0.1-0.1,0.2-0.3,0.1-0.5c0-0.3-0.4-0.4-0.4-0.6c0-0.1,0.1-0.1,0.2-0.1c0.2,0,0.4,0.3,0.5,0.6  C292.8,10.6,292.7,11,292.6,11.1"></path>	<path clip-path="url(#SVGID_2_)" fill="#FFFFFF" d="M301,21.6c-0.1,0-0.1,0.3-0.1,0.6c0,0.4,0.2,0.7,0.3,0.7c0.1,0,0-0.5,0-0.7  C301.2,22.1,301.1,21.6,301,21.6"></path>	<path clip-path="url(#SVGID_2_)" fill="#FFFFFF" d="M301.8,27.5c-0.1,0-0.1-0.2-0.1-0.2c0,0,0-0.1,0-0.2c0-0.2,0-0.2,0-0.3  c0-0.1-0.1-0.2-0.1-0.3c-0.1-0.3,0-0.5,0.1-0.9c0-0.5-0.2-0.9-0.2-0.9c0,0,0,0.1,0,0.4c0,0.1,0,0.2,0,0.6c0,0.7,0,0.3,0,0.7  c0,0.3,0,0.4,0,0.5c0,0.2,0.1,0.2,0.1,0.4c0,0.2,0,0.2,0,0.9c0,0.2,0,0.2,0,0.3c0,0.3,0.1,0.4,0,0.6c0,0.2-0.1,0.2-0.2,0.4  c0,0.2,0,0.2,0,0.5c0,0,0,0.1,0,0.1c0,0,0.2-0.3,0.3-0.5c0.1-0.8,0.2-1.5,0.2-2.3C301.8,27.4,301.8,27.5,301.8,27.5"></path></g></svg>