<svg xmlns="http://www.w3.org/2000/svg" xmlns:xlink="http://www.w3.org/1999/xlink" id="Layer_1" x="0px" y="0px" viewBox="0 0 419 81.2" xml:space="preserve"><path fill="none" stroke="#FFFFFF" stroke-miterlimit="10" d="M63.3,68.9c0.6-0.5,1.3-0.7,2.1-0.7c0.8,0,1.5,0.2,2,0.7 c0.6,0.5,0.9,1.1,1,1.8h-6.3C62.3,70,62.7,69.4,63.3,68.9z M69.6,74.2c-0.7,0.4-1.3,0.8-1.9,1c-0.6,0.2-1.2,0.3-1.9,0.3 c-1.1,0-2-0.4-2.7-1.1c-0.7-0.7-1-1.6-1-2.8v-0.1h7.7v0c0-1.3-0.4-2.3-1.2-3c-0.8-0.8-1.8-1.1-3.1-1.1c-1.4,0-2.5,0.4-3.3,1.2 c-0.8,0.8-1.3,1.9-1.3,3.2c0,1.4,0.4,2.6,1.3,3.4c0.9,0.9,2.1,1.3,3.6,1.3c0.6,0,1.3-0.1,1.9-0.3c0.6-0.2,1.2-0.5,1.9-0.9V74.2z"></path><polygon fill="none" stroke="#FFFFFF" stroke-miterlimit="10" points="76.2,76.3 79.6,72.5 83,76.3 84.4,76.3 80.3,71.8 84.2,67.6  82.9,67.6 79.6,71.1 76.4,67.6 75,67.6 78.9,71.8 74.9,76.3 "></polygon><path fill="none" stroke="#FFFFFF" stroke-miterlimit="10" d="M91.2,76.3v-6.1c0.4-0.6,0.9-1.1,1.5-1.4s1.2-0.5,1.9-0.5 c0.8,0,1.5,0.3,1.9,0.8c0.4,0.5,0.6,1.3,0.6,2.4v4.8h1.1V71c0-1.1-0.3-2-0.9-2.6c-0.6-0.6-1.5-0.9-2.6-0.9c-0.7,0-1.3,0.1-1.9,0.4 c-0.6,0.3-1.1,0.6-1.6,1.2v-5.9h-1.1v13.2H91.2z"></path><path fill="none" stroke="#FFFFFF" stroke-miterlimit="10" d="M106.4,67.6h-1.1v8.7h1.1V67.6z M106.4,63.1h-1.1v1.6h1.1V63.1z"></path><path fill="none" stroke="#FFFFFF" stroke-miterlimit="10" d="M115.3,76.3c0.5,0.1,1.1,0.2,1.6,0.2c1.6,0,2.9-0.4,3.9-1.3 c1-0.9,1.5-2,1.5-3.5c0-1.3-0.4-2.3-1.2-3.1c-0.8-0.8-1.8-1.2-3-1.2c-0.7,0-1.3,0.1-1.8,0.3c-0.6,0.2-1.1,0.6-1.6,1v-5.6h-1.1v12.7 C114.2,76,114.8,76.2,115.3,76.3z M114.6,69.8c0.5-0.5,0.9-0.9,1.5-1.2c0.5-0.3,1.1-0.4,1.7-0.4c1,0,1.8,0.3,2.4,1 c0.6,0.6,0.9,1.5,0.9,2.5c0,1.1-0.4,2-1.1,2.7c-0.8,0.7-1.7,1-2.9,1c-0.5,0-1-0.1-1.4-0.2c-0.4-0.1-0.8-0.3-1.1-0.5V69.8z"></path><path fill="none" stroke="#FFFFFF" stroke-miterlimit="10" d="M129.9,67.6h-1.1v8.7h1.1V67.6z M129.9,63.1h-1.1v1.6h1.1V63.1z"></path><path fill="none" stroke="#FFFFFF" stroke-miterlimit="10" d="M138.6,68.4h2.7v-0.8h-2.7v-2.8h-0.3l-0.8,0.8v2h-2.2v0.8h2.1v5.7 c0,0.9,0.2,1.5,0.5,1.8c0.3,0.3,0.9,0.5,1.7,0.5c0.3,0,0.6,0,0.9-0.1c0.3-0.1,0.6-0.1,0.9-0.3v-1c-0.3,0.2-0.6,0.3-0.9,0.3 c-0.3,0.1-0.5,0.1-0.8,0.1c-0.5,0-0.8-0.1-1-0.3c-0.2-0.2-0.3-0.6-0.3-1.2V68.4z"></path><path fill="none" stroke="#FFFFFF" stroke-miterlimit="10" d="M148.4,67.6h-1.1v8.7h1.1V67.6z M148.4,63.1h-1.1v1.6h1.1V63.1z"></path><path fill="none" stroke="#FFFFFF" stroke-miterlimit="10" d="M156.3,75.1c1,0.9,2.2,1.3,3.7,1.3c0.7,0,1.3-0.1,2-0.3 c0.6-0.2,1.2-0.5,1.7-1c0.5-0.4,0.9-0.9,1.1-1.5c0.3-0.6,0.4-1.1,0.4-1.7c0-1.3-0.5-2.3-1.5-3.2c-1-0.9-2.2-1.3-3.7-1.3 c-1.4,0-2.7,0.4-3.7,1.3c-1,0.9-1.5,2-1.5,3.2C154.8,73.2,155.3,74.3,156.3,75.1z M157.2,69.3c0.8-0.7,1.7-1.1,2.8-1.1 c1.1,0,2,0.4,2.8,1.1c0.8,0.7,1.1,1.6,1.1,2.6c0,1-0.4,1.9-1.1,2.6c-0.8,0.7-1.7,1.1-2.8,1.1c-1.1,0-2-0.4-2.8-1.1 c-0.8-0.7-1.2-1.6-1.2-2.6C156.1,70.9,156.4,70,157.2,69.3z"></path><path fill="none" stroke="#FFFFFF" stroke-miterlimit="10" d="M172.6,76.3v-6.1c0.4-0.6,0.9-1.1,1.5-1.4c0.6-0.3,1.2-0.5,1.9-0.5 c0.8,0,1.5,0.3,1.9,0.8c0.4,0.5,0.6,1.3,0.6,2.4v4.8h1.1V71c0-1.1-0.3-2-0.9-2.6c-0.6-0.6-1.5-0.9-2.6-0.9c-0.7,0-1.3,0.1-1.9,0.4 c-0.6,0.3-1.1,0.6-1.6,1.2v-1.4h-1.1v8.7H172.6z"></path><path fill="none" stroke="#FFFFFF" stroke-miterlimit="10" d="M197.6,80.7v-5c0.4,0.3,0.8,0.5,1.3,0.6c0.5,0.1,1,0.2,1.5,0.2 c1.4,0,2.6-0.4,3.5-1.3c0.9-0.8,1.3-1.9,1.3-3.3c0-1.3-0.4-2.4-1.3-3.3c-0.9-0.8-2.1-1.3-3.5-1.3c-0.5,0-1,0.1-1.5,0.2 c-0.5,0.1-0.9,0.3-1.3,0.6v-0.6h-1.1v13.1H197.6z M198.8,68.5c0.4-0.2,0.9-0.2,1.5-0.2c1.1,0,2,0.3,2.7,1c0.7,0.7,1,1.6,1,2.6 s-0.3,2-1,2.6c-0.7,0.7-1.6,1-2.7,1c-0.5,0-1-0.1-1.5-0.2c-0.4-0.2-0.8-0.4-1.2-0.7v-5.3C198,68.9,198.4,68.7,198.8,68.5z"></path><path fill="none" stroke="#FFFFFF" stroke-miterlimit="10" d="M212.9,76.3v-5.5c0.6-0.8,1.1-1.5,1.5-1.8c0.5-0.4,0.9-0.6,1.4-0.6 c0.2,0,0.5,0.1,0.7,0.2c0.2,0.1,0.5,0.3,0.8,0.5l0.6-0.9c-0.3-0.2-0.6-0.4-0.9-0.5c-0.3-0.1-0.6-0.2-0.9-0.2c-0.6,0-1.1,0.2-1.6,0.5 c-0.5,0.4-1.1,0.9-1.7,1.8v-2.2h-1.1v8.7H212.9z"></path><path fill="none" stroke="#FFFFFF" stroke-miterlimit="10" d="M224.1,75.1c1,0.9,2.2,1.3,3.7,1.3c0.7,0,1.3-0.1,2-0.3 c0.6-0.2,1.2-0.5,1.7-1c0.5-0.4,0.9-0.9,1.1-1.5c0.3-0.6,0.4-1.1,0.4-1.7c0-1.3-0.5-2.3-1.5-3.2c-1-0.9-2.2-1.3-3.7-1.3 c-1.4,0-2.7,0.4-3.7,1.3c-1,0.9-1.5,2-1.5,3.2C222.6,73.2,223.1,74.3,224.1,75.1z M225,69.3c0.8-0.7,1.7-1.1,2.8-1.1 c1.1,0,2,0.4,2.8,1.1c0.8,0.7,1.1,1.6,1.1,2.6c0,1-0.4,1.9-1.1,2.6c-0.8,0.7-1.7,1.1-2.8,1.1c-1.1,0-2-0.4-2.8-1.1 c-0.8-0.7-1.2-1.6-1.2-2.6C223.8,70.9,224.2,70,225,69.3z"></path><path fill="none" stroke="#FFFFFF" stroke-miterlimit="10" d="M240.6,76.3v-7.9h1.8v-0.8h-1.8v-1.2c0-0.9,0.2-1.6,0.6-2 c0.4-0.4,1-0.6,1.8-0.6c0.1,0,0.3,0,0.5,0c0.2,0,0.3,0,0.5,0.1V63c-0.2,0-0.4-0.1-0.6-0.1c-0.2,0-0.3,0-0.5,0c-1.2,0-2,0.3-2.6,0.9 c-0.5,0.6-0.8,1.5-0.8,2.8v1h-1.7v0.8h1.7v7.9H240.6z"></path><path fill="none" stroke="#FFFFFF" stroke-miterlimit="10" d="M250,68.9c0.6-0.5,1.3-0.7,2.1-0.7c0.8,0,1.5,0.2,2,0.7 c0.6,0.5,0.9,1.1,1,1.8h-6.3C249.1,70,249.4,69.4,250,68.9z M256.3,74.2c-0.7,0.4-1.3,0.8-1.9,1c-0.6,0.2-1.2,0.3-1.9,0.3 c-1.1,0-2-0.4-2.7-1.1c-0.7-0.7-1-1.6-1-2.8v-0.1h7.7v0c0-1.3-0.4-2.3-1.2-3c-0.8-0.8-1.8-1.1-3.1-1.1c-1.4,0-2.5,0.4-3.3,1.2 c-0.8,0.8-1.3,1.9-1.3,3.2c0,1.4,0.4,2.6,1.3,3.4c0.9,0.9,2.1,1.3,3.6,1.3c0.6,0,1.3-0.1,1.9-0.3c0.6-0.2,1.2-0.5,1.9-0.9V74.2z"></path><path fill="none" stroke="#FFFFFF" stroke-miterlimit="10" d="M262.5,75.7c0.5,0.3,0.9,0.5,1.4,0.6c0.5,0.1,1,0.2,1.5,0.2 c1,0,1.8-0.2,2.4-0.7c0.6-0.4,0.9-1.1,0.9-1.8c0-0.6-0.2-1.1-0.6-1.4c-0.4-0.4-1.1-0.7-2.1-1c-0.9-0.3-1.6-0.6-1.9-0.8 c-0.3-0.3-0.5-0.6-0.5-1c0-0.4,0.2-0.8,0.6-1.1c0.4-0.3,0.9-0.4,1.4-0.4c0.4,0,0.9,0.1,1.3,0.2c0.5,0.1,0.9,0.4,1.4,0.6v-1 c-0.5-0.3-0.9-0.4-1.4-0.6c-0.4-0.1-0.9-0.2-1.3-0.2c-0.9,0-1.7,0.2-2.3,0.7c-0.6,0.4-0.9,1-0.9,1.7c0,0.5,0.2,1,0.5,1.4 c0.4,0.4,0.9,0.7,1.6,1c0.2,0.1,0.5,0.2,0.8,0.3c1.3,0.4,2,1,2,1.7c0,0.5-0.2,0.8-0.5,1.1c-0.4,0.3-0.9,0.4-1.5,0.4 c-0.5,0-1-0.1-1.5-0.2c-0.5-0.1-1-0.4-1.5-0.7V75.7z"></path><path fill="none" stroke="#FFFFFF" stroke-miterlimit="10" d="M274.5,75.7c0.5,0.3,0.9,0.5,1.4,0.6c0.5,0.1,1,0.2,1.5,0.2 c1,0,1.8-0.2,2.4-0.7c0.6-0.4,0.9-1.1,0.9-1.8c0-0.6-0.2-1.1-0.6-1.4c-0.4-0.4-1.1-0.7-2.1-1c-0.9-0.3-1.6-0.6-1.9-0.8 c-0.3-0.3-0.5-0.6-0.5-1c0-0.4,0.2-0.8,0.6-1.1c0.4-0.3,0.9-0.4,1.4-0.4c0.4,0,0.9,0.1,1.3,0.2c0.5,0.1,0.9,0.4,1.4,0.6v-1 c-0.5-0.3-0.9-0.4-1.4-0.6c-0.4-0.1-0.9-0.2-1.3-0.2c-0.9,0-1.7,0.2-2.3,0.7c-0.6,0.4-0.9,1-0.9,1.7c0,0.5,0.2,1,0.5,1.4 c0.4,0.4,0.9,0.7,1.6,1c0.2,0.1,0.5,0.2,0.8,0.3c1.3,0.4,2,1,2,1.7c0,0.5-0.2,0.8-0.5,1.1c-0.4,0.3-0.9,0.4-1.5,0.4 c-0.5,0-1-0.1-1.5-0.2c-0.5-0.1-1-0.4-1.5-0.7V75.7z"></path><path fill="none" stroke="#FFFFFF" stroke-miterlimit="10" d="M288.3,67.6h-1.1v8.7h1.1V67.6z M288.3,63.1h-1.1v1.6h1.1V63.1z"></path><path fill="none" stroke="#FFFFFF" stroke-miterlimit="10" d="M296.3,75.1c1,0.9,2.2,1.3,3.7,1.3c0.7,0,1.3-0.1,2-0.3 c0.6-0.2,1.2-0.5,1.7-1c0.5-0.4,0.9-0.9,1.1-1.5c0.3-0.6,0.4-1.1,0.4-1.7c0-1.3-0.5-2.3-1.5-3.2c-1-0.9-2.2-1.3-3.7-1.3 c-1.4,0-2.7,0.4-3.7,1.3c-1,0.9-1.5,2-1.5,3.2C294.8,73.2,295.3,74.3,296.3,75.1z M297.1,69.3c0.8-0.7,1.7-1.1,2.8-1.1 c1.1,0,2,0.4,2.8,1.1c0.8,0.7,1.1,1.6,1.1,2.6c0,1-0.4,1.9-1.1,2.6c-0.8,0.7-1.7,1.1-2.8,1.1c-1.1,0-2-0.4-2.8-1.1 c-0.8-0.7-1.2-1.6-1.2-2.6C296,70.9,296.3,70,297.1,69.3z"></path><path fill="none" stroke="#FFFFFF" stroke-miterlimit="10" d="M312.5,76.3v-6.1c0.4-0.6,0.9-1.1,1.5-1.4c0.6-0.3,1.2-0.5,1.9-0.5 c0.8,0,1.5,0.3,1.9,0.8c0.4,0.5,0.6,1.3,0.6,2.4v4.8h1.1V71c0-1.1-0.3-2-0.9-2.6c-0.6-0.6-1.5-0.9-2.6-0.9c-0.7,0-1.3,0.1-1.9,0.4 c-0.6,0.3-1.1,0.6-1.6,1.2v-1.4h-1.1v8.7H312.5z"></path><path fill="none" stroke="#FFFFFF" stroke-miterlimit="10" d="M331.8,76.2c0.1,0.2,0.4,0.2,0.7,0.2c0.2,0,0.4-0.1,0.7-0.2 c0.3-0.1,0.6-0.3,0.9-0.6l0-0.9c-0.1,0-0.1,0.1-0.2,0.2c-0.4,0.3-0.7,0.5-0.9,0.5c-0.1,0-0.2,0-0.3-0.1c-0.1-0.1-0.1-0.2-0.1-0.4 v-4.6c0-1-0.3-1.8-0.8-2.3c-0.5-0.5-1.3-0.7-2.5-0.7c-0.5,0-1,0.1-1.5,0.2c-0.5,0.2-1,0.4-1.6,0.7v1c0.6-0.4,1.1-0.6,1.6-0.8 c0.5-0.2,1-0.3,1.4-0.3c0.8,0,1.3,0.1,1.7,0.4c0.4,0.3,0.5,0.8,0.5,1.4V71c-1.9,0.1-3.3,0.4-4.3,0.9c-1,0.6-1.5,1.3-1.5,2.3 c0,0.7,0.3,1.2,0.8,1.6c0.5,0.4,1.2,0.6,2,0.6c0.5,0,1-0.1,1.5-0.2c0.5-0.2,1-0.4,1.5-0.8C331.5,75.8,331.6,76,331.8,76.2z  M330.1,75.4c-0.4,0.2-0.9,0.3-1.3,0.3c-0.6,0-1.1-0.1-1.4-0.4c-0.3-0.3-0.5-0.6-0.5-1.1c0-0.7,0.4-1.3,1.2-1.7 c0.8-0.4,2-0.7,3.4-0.7v2.7C331,74.9,330.5,75.2,330.1,75.4z"></path><rect x="340" y="63.1" fill="none" stroke="#FFFFFF" stroke-miterlimit="10" width="1.1" height="13.2"></rect><path fill="none" stroke="#FFFFFF" stroke-miterlimit="10" d="M347.6,75.7c0.5,0.3,0.9,0.5,1.4,0.6c0.5,0.1,1,0.2,1.5,0.2 c1,0,1.8-0.2,2.4-0.7c0.6-0.4,0.9-1.1,0.9-1.8c0-0.6-0.2-1.1-0.6-1.4c-0.4-0.4-1.1-0.7-2.1-1c-0.9-0.3-1.6-0.6-1.9-0.8 c-0.3-0.3-0.5-0.6-0.5-1c0-0.4,0.2-0.8,0.6-1.1c0.4-0.3,0.9-0.4,1.4-0.4c0.4,0,0.9,0.1,1.3,0.2c0.5,0.1,0.9,0.4,1.4,0.6v-1 c-0.5-0.3-0.9-0.4-1.4-0.6c-0.4-0.1-0.9-0.2-1.3-0.2c-0.9,0-1.7,0.2-2.3,0.7c-0.6,0.4-0.9,1-0.9,1.7c0,0.5,0.2,1,0.5,1.4 c0.4,0.4,0.9,0.7,1.6,1c0.2,0.1,0.5,0.2,0.8,0.3c1.3,0.4,2,1,2,1.7c0,0.5-0.2,0.8-0.5,1.1c-0.4,0.3-0.9,0.4-1.5,0.4 c-0.5,0-1-0.1-1.5-0.2c-0.5-0.1-1-0.4-1.5-0.7V75.7z"></path><line fill="#FFFFFF" x1="419" y1="71.9" x2="363.2" y2="71.9"></line><line fill="none" stroke="#FFFFFF" stroke-miterlimit="10" x1="419" y1="71.9" x2="363.2" y2="71.9"></line><line fill="#FFFFFF" x1="55.8" y1="74.4" x2="0" y2="74.4"></line><line fill="none" stroke="#FFFFFF" stroke-miterlimit="10" x1="55.8" y1="74.4" x2="0" y2="74.4"></line><polygon fill="#FFFFFF" points="29.5,37 29.5,47.2 0.4,47.2 0.4,0.9 29.1,0.9 29.1,11.1 11,11.1 11,18.8 27.5,18.8 27.5,28.8  11,28.8 11,37 "></polygon><polygon fill="#FFFFFF" points="55.1,47.2 49,38.5 42.8,47.2 31.5,47.2 43.3,30.4 31.9,14.1 43.2,14.1 49,22.3 54.7,14.1 66.1,14.1  54.7,30.4 66.5,47.2 "></polygon><path fill="#FFFFFF" d="M105.7,30.7c0,9.8-7.1,17.4-15.8,17.4c-4.4,0-7.7-1.5-9.8-4v16.3h-9.9V14.1H80v3.1c2.2-2.5,5.4-4,9.8-4 C98.5,13.2,105.7,20.8,105.7,30.7 M95.8,30.7c0-5-3.3-8.1-7.9-8.1c-4.6,0-7.9,3.1-7.9,8.1c0,5,3.3,8.1,7.9,8.1 C92.4,38.7,95.8,35.6,95.8,30.7"></path><path fill="#FFFFFF" d="M131.1,13.5v11.2c-4.1-0.7-9.9,1-9.9,7.5v14.9h-9.9v-33h9.9V20C122.5,15.6,126.9,13.5,131.1,13.5"></path><path fill="#FFFFFF" d="M133.1,30.7c0-9.8,7.8-17.4,17.5-17.4c9.7,0,17.5,7.6,17.5,17.4c0,9.8-7.8,17.4-17.5,17.4 C140.9,48.1,133.1,40.5,133.1,30.7 M158.2,30.7c0-4.7-3.3-7.8-7.6-7.8c-4.3,0-7.6,3.1-7.6,7.8c0,4.7,3.3,7.8,7.6,7.8 C154.9,38.5,158.2,35.4,158.2,30.7"></path><path fill="#FFFFFF" d="M219.8,25.4c0,14.1-9.8,22.7-22.8,22.7c-14.5,0-25-10.7-25-24c0-13.4,10.6-24.1,24.3-24.1 c8.9,0,16.3,4.4,20.2,10.6l-9,5.2c-1.9-3-6.1-5.4-11.3-5.4c-7.8,0-13.6,5.7-13.6,13.9c0,7.9,5.6,13.6,14.5,13.6 c6.1,0,10.2-2.7,11.8-7.1h-12.4v-9.3h23.2V25.4z"></path><polygon fill="#FFFFFF" points="252.9,37 252.9,47.2 225.8,47.2 225.8,0.9 236.4,0.9 236.4,37 "></polygon><path fill="#FFFFFF" d="M341.3,33.6c0,8.2-6.7,13.5-14.9,13.5h-19.4V0.9H325c8.1,0,14.6,5.2,14.6,13.2c0,3.8-1.5,6.9-4,9.1 C339,25.4,341.3,28.9,341.3,33.6 M317.5,10.8V19h7.5c2.4,0,4-1.7,4-4.1s-1.6-4.1-4-4.1H317.5z M330.7,32.8c0-2.6-1.7-4.4-4.4-4.4 h-8.9v8.9h8.9C329,37.3,330.7,35.4,330.7,32.8"></path><path fill="#FFFFFF" d="M373.7,39.9h-17.2l-2.3,7.3h-11.6l15.7-46.3h13.5l15.7,46.3H376L373.7,39.9z M370.5,30l-5.4-17l-5.4,17 H370.5z"></path><polygon fill="#FFFFFF" points="418.6,37 418.6,47.2 391.5,47.2 391.5,0.9 402.1,0.9 402.1,37 "></polygon><path fill="#FFFFFF" d="M301.9,24.3c0-13.2-10.7-24-24-24c-13.2,0-24,10.7-24,24c0,13.2,10.7,24,24,24 C291.2,48.2,301.9,37.5,301.9,24.3"></path><path fill="#A11E22" d="M280.9,38.1c-0.1,0.1,0,0.2-0.1,0.3c-0.1,0.1-0.1,0.1-0.2,0.2c-0.1,0.1-0.1,0.1-0.1,0.2 c-0.1,0.1-0.1,0.2-0.2,0.3c-0.1,0.1-0.2,0.2-0.4,0.3c-0.1,0.1-0.1,0.1-0.1,0.1c-0.2,0.1-0.3,0-0.4,0.1c-0.1,0.1-0.2,0.2-0.3,0.2 c-0.1,0.1-0.1,0.3-0.1,0.5c0,0.3,0,0.3,0,0.5c0,0.1,0,0.3-0.1,0.4c-0.1,0.3-0.3,0.3-0.3,0.5c0,0.1,0,0.1,0,0.3c0,0.1,0,0.1,0,0.2 c0,0.1,0,0.2,0,0.2c0,0.1,0.1,0.1,0.1,0.2c0.1,0.1,0.2,0.2,0.3,0.2c0.1,0,0.3,0.1,0.5,0c0.1-0.1,0.1-0.1,0.3-0.5 c0.1-0.3,0.1-0.2,0.2-0.5c0.1-0.3,0.1-0.3,0.2-0.5c0.1-0.2,0.1-0.2,0.4-0.5c0.2-0.3,0.3-0.5,0.3-0.6c0-0.3-0.1-0.4,0-0.7 c0-0.1,0.1-0.1,0.2-0.1c0.1,0,0.1,0.1,0.1,0.1c0.1,0,0.1-0.2,0.1-0.2c0-0.1,0-0.2,0-0.4c0-0.4,0-0.2-0.1-0.6c0-0.2,0-0.2-0.1-0.3 C281,37.9,280.9,38,280.9,38.1"></path><path fill="#A11E22" d="M267.4,16.1C267.4,16.1,267.3,16.2,267.4,16.1c-0.1,0.2,0,0.3,0,0.4c0.1,0.1,0.2,0.1,0.3,0.2 c0.1,0.1,0.2,0.1,0.2,0.1c0.1,0,0.1-0.1,0.2-0.1c0-0.1,0-0.1,0-0.2c0-0.1,0.1-0.1,0.1-0.2c0,0,0-0.1,0-0.1c0,0-0.1,0-0.2,0 c-0.2,0-0.2,0.1-0.3,0.1c-0.1,0-0.2,0-0.2,0C267.5,16.1,267.4,16.1,267.4,16.1"></path><path fill="#A11E22" d="M266.7,14.2c0,0-0.2,0.1-0.2,0.2c-0.1,0.1-0.1,0.2-0.1,0.2c0,0,0,0.2,0,0.2c0,0,0.1,0,0.1-0.1 c0.1-0.1,0.1-0.1,0.1-0.1c0,0,0-0.1,0-0.2C266.8,14.3,266.8,14.2,266.7,14.2"></path><path fill="#A11E22" d="M266.3,15c-0.1,0.1,0,0.2,0,0.3c0,0.1,0,0-0.1,0.1c-0.1,0.1-0.1,0.1-0.1,0.2c0,0.1,0.1,0.2,0.1,0.2 c0.1,0,0.1,0,0.2-0.1c0.1-0.1,0.2-0.2,0.2-0.3c0-0.1,0-0.1,0.1-0.3c0-0.1,0-0.1,0-0.2c0,0-0.1-0.1-0.1-0.1 C266.5,14.9,266.3,14.9,266.3,15"></path><path fill="#A11E22" d="M270,16C269.9,16,269.9,16.1,270,16c-0.1,0.1,0,0.2,0,0.2c0,0,0,0,0-0.1C270.1,16.1,270,16,270,16"></path><path fill="#A11E22" d="M270,16.3C270,16.3,270,16.3,270,16.3C270.1,16.4,270.1,16.4,270,16.3C270.1,16.3,270.1,16.3,270,16.3 C270.1,16.3,270,16.3,270,16.3"></path><path fill="#A11E22" d="M270.3,16.1c0,0-0.1,0-0.1,0.1c0,0,0.1,0.1,0.1,0.1c0,0.1,0,0.1,0,0.1c0,0,0.1,0.1,0.1,0.1 c0.1,0,0.1,0,0.1,0c0.1,0.1,0.1,0.2,0.2,0.3c0.1,0,0.1,0,0.1-0.1c0,0,0-0.1,0-0.1c-0.1-0.2-0.1-0.2-0.1-0.3c0,0,0.1-0.1,0.1-0.1 c0.1,0,0.1,0.1,0.1,0.1c0,0,0-0.1,0-0.1c0-0.1-0.1-0.1-0.2-0.2C270.6,16.1,270.4,16.1,270.3,16.1"></path><path fill="#A11E22" d="M271,17.1c0,0,0.1,0,0.2,0c0.1,0,0.1,0,0.1,0.1c0.1,0.1,0.2,0,0.3,0c0.2,0,0.3,0.1,0.3,0.1 c0,0-0.1,0.1-0.2,0.1c-0.1,0-0.1,0-0.3,0c-0.2,0-0.3,0-0.3-0.1C271.1,17.3,271,17.2,271,17.1"></path><path fill="#A11E22" d="M293.2,28.9c0,0,0,0-0.1,0.4c-0.1,0.2-0.1,0.4-0.1,0.4c0,0.2,0.1,0.2,0.1,0.5c0,0.1,0,0.1,0,0.1 c0.1,0.1,0.2,0,0.3-0.1c0.2-0.1,0.2-0.4,0.2-0.4c0-0.2-0.1-0.2-0.2-0.5C293.2,29.1,293.2,28.9,293.2,28.9"></path><path fill="#A11E22" d="M297.8,30.8c-0.1-0.1-0.1,0-0.2-0.1c-0.1-0.1-0.2-0.2-0.2-0.2c-0.1,0-0.1,0.2-0.1,0.2c0,0,0,0.4,0.2,0.6 c0.1,0,0.1,0.1,0.1,0.1c0,0,0,0.1,0,0.2c0,0.1,0,0.1,0,0.2c0,0.1,0.1,0.1,0.1,0.2c0,0.1,0.1,0.1,0.1,0.2c0,0.2,0,0.3-0.1,0.4 c0,0.2,0.1,0.2,0.1,0.4c0,0.2,0,0.5,0,0.6c0,0.2-0.1,0.3,0,0.4c0,0.2,0.1,0.2,0.1,0.4c0,0.2-0.1,0.2-0.1,0.3c0,0.1,0,0.1,0.1,0.3 c0.1,0.2,0,0.2,0.1,0.3c0.1,0.1,0.3-0.1,0.3-0.1c0.2-0.1,0.2-0.3,0.3-0.7c0.1-0.3,0.2-0.5,0.1-0.5c-0.1,0-0.2,0.1-0.2,0 c0,0,0-0.1,0-0.2c0-0.1,0.1-0.3,0-0.3c0-0.1-0.1,0-0.1-0.1c0-0.1,0-0.2,0-0.2c0.1-0.2,0.2-0.2,0.2-0.3c0-0.1-0.1-0.1-0.2-0.2 c0-0.1,0-0.2-0.1-0.4c0-0.1,0-0.1,0-0.1c0-0.1-0.1-0.1-0.1-0.1c0-0.1-0.1-0.1-0.1-0.3c0-0.1,0-0.1,0-0.2c0-0.2-0.2-0.2-0.2-0.4 c0-0.1,0-0.2,0-0.3C297.9,30.9,297.9,30.8,297.8,30.8"></path><path fill="#A11E22" d="M297.4,32.4c-0.1,0-0.1,0.3,0,0.3c0.1,0,0.1,0,0.2-0.1c0,0,0,0,0-0.1C297.6,32.5,297.5,32.4,297.4,32.4"></path><path fill="#A11E22" d="M297.5,33.5c0,0,0.1,0.1,0.1,0.1c0,0,0,0.1,0,0.1c0,0-0.1,0-0.1,0C297.4,33.6,297.5,33.5,297.5,33.5"></path><path fill="#A11E22" d="M297.5,33c0,0-0.1,0.1-0.1,0.1c0,0.1,0.1,0.1,0.2,0C297.7,33.1,297.6,33,297.5,33"></path><path fill="#A11E22" d="M297.3,31.7c0,0-0.1,0.1,0,0.1c0,0.1,0.2,0.2,0.2,0.2c0,0,0-0.1,0-0.2C297.4,31.8,297.3,31.7,297.3,31.7"></path><path fill="#A11E22" d="M297.6,34.2c0,0,0,0.3,0,0.3c0,0,0.1-0.1,0.1-0.1C297.7,34.3,297.6,34.2,297.6,34.2"></path><path fill="#A11E22" d="M298.1,35.7c-0.1,0-0.2,0.1-0.1,0.2c0,0,0,0,0,0.1c0,0.1,0,0.1,0,0.2c0,0.1,0.2,0.2,0.3,0.1 c0.1,0,0.1,0,0.1,0c0.1,0,0,0.1,0.1,0.2c0,0,0.1,0.1,0.1,0.1c0.1,0,0.2,0,0.2,0.1c0,0,0,0.1,0,0.1c0,0,0.1,0,0.1,0 c0.1,0,0.1-0.1,0.1-0.2c0-0.1-0.1-0.1-0.2-0.2c0,0-0.1-0.1-0.1-0.1c0-0.1,0.2-0.1,0.3-0.3c0,0,0-0.1,0-0.1c0-0.1-0.3-0.2-0.4-0.1 c-0.1,0.1-0.1,0.2-0.2,0.2c0,0,0-0.1-0.1-0.2C298.3,35.8,298.2,35.7,298.1,35.7"></path><path fill="#A11E22" d="M301.1,30c0,0,0,0-0.1,0.3c-0.1,0.4-0.1,0.4-0.2,0.5c-0.1,0.1-0.2,0.1-0.2,0.3c0,0.1,0,0.1,0,0.1 c0,0.1-0.1,0.2-0.2,0.2c-0.1,0.1-0.1,0.2-0.3,0.7c-0.1,0.3-0.2,0.4-0.2,0.3c-0.1,0,0-0.2-0.1-0.2c-0.1,0-0.1,0.2-0.2,0.5 c-0.1,0.4,0,0.4-0.1,0.8c-0.1,0.3-0.1,0.4-0.1,0.6c0,0.1,0,0.2,0.1,0.3c0,0.2,0.1,0.2,0.1,0.3c0.1,0,0.2-0.1,0.3-0.2 c0.2-0.2,0.1-0.4,0.2-0.7c0.1-0.3,0.2-0.2,0.3-0.4c0.1-0.2,0-0.4,0.1-0.6c0.1-0.1,0.1-0.1,0.2-0.1c0.2-0.2,0-0.5,0.1-1.1 c0-0.1,0.1-0.3,0.2-0.6c0.1-0.1,0.1-0.1,0.1-0.2C301.2,30.3,301.1,30,301.1,30"></path><path fill="#A11E22" d="M300.2,23.9c-0.1,0-0.1,0.2-0.2,0.2c0,0-0.1,0.3,0,0.4c0,0,0.1,0.1,0.2,0c0.1,0,0.1-0.2,0.1-0.3 C300.4,24.2,300.3,23.9,300.2,23.9"></path><path fill="#A11E22" d="M277.6,6c0,0,0-0.1,0.2-0.3c0.2-0.3,0.2-0.3,0.2-0.4c0.2-0.1,0.3,0,0.7-0.1c0.2-0.1,0.3-0.2,0.5-0.2 c0.1,0,0.2,0,0.3,0c0,0-0.2,0.1-0.4,0.2c-0.2,0.1-0.3,0.1-0.4,0.1c-0.2,0.1-0.3,0.1-0.3,0.2c-0.1,0.1-0.2,0.2-0.2,0.3 c0,0.1,0.1,0.2,0.2,0.2c0.1,0.1,0.2,0.1,0.2,0.1c0,0-0.1,0-0.2,0.1C278.1,6.2,277.7,6.2,277.6,6"></path><path fill="#A11E22" d="M277.2,6.4c0-0.1,0.3-0.1,0.3,0c0,0,0,0.1,0,0.2c0,0.1-0.2,0.1-0.2,0.1C277.2,6.5,277.1,6.4,277.2,6.4"></path><path fill="#A11E22" d="M281.4,4.4c-0.1,0-0.1,0.1-0.1,0.2c0,0.1,0.2,0.1,0.4,0.1c0.3,0,0.4,0,0.6,0c0.2,0,0.2,0,0.2,0 c0,0-0.1-0.1-0.4-0.1C281.7,4.4,281.5,4.3,281.4,4.4"></path><path fill="#A11E22" d="M282.8,4.8c0,0.1,0.3,0.1,0.3,0c0,0,0-0.1,0-0.1c0-0.1-0.2-0.1-0.3-0.1C282.8,4.7,282.8,4.8,282.8,4.8"></path><path fill="#A11E22" d="M276.3,4.6c0,0.1,0.5,0.1,0.7,0.1c0.4,0,0.3-0.1,0.6-0.1c0.3,0,0.4,0.1,0.7,0.1c0.2,0,0.4,0,0.4-0.1 c0,0-0.2-0.1-0.4-0.1c-0.2,0-0.3,0-0.7,0c-0.3,0-0.4,0-0.5,0c-0.3,0-0.4-0.2-0.5-0.1C276.3,4.5,276.3,4.6,276.3,4.6"></path><path fill="#A11E22" d="M264,11.8c0,0,0.2,0,0.9-0.2c0.3-0.1,0.4-0.1,0.5-0.2c0.1-0.1,0.1-0.2,0.3-0.3c0.2-0.1,0.3-0.1,0.3-0.2 c0-0.1-0.1-0.1-0.2-0.3c0-0.1,0-0.1,0-0.5c0-0.3,0-0.2,0-0.3c0.1-0.3,0.4-0.4,0.4-0.5c0-0.1-0.3,0-0.3-0.1c0-0.1,0.1-0.2,0.1-0.2 c0,0-0.4,0.3-0.5,0.3c0,0,0.1-0.1,0.1-0.2c0,0-0.3,0.2-0.5,0.3c-0.2,0.2-0.2,0.2-0.2,0.3c0,0.1,0.2,0.2,0.3,0.4c0,0,0.1,0.2,0,0.3 c-0.1,0.1-0.1,0-0.3,0.1c-0.1,0-0.1,0.1-0.2,0.1c0,0.1,0,0.2,0,0.2c-0.1,0.1-0.2,0-0.3,0.1c0,0-0.1,0.1-0.1,0.1 c0,0.1,0.3,0.1,0.3,0.2c0,0.1-0.2,0.1-0.4,0.2C264.2,11.6,264,11.8,264,11.8"></path><path fill="#A11E22" d="M263.6,11.3c0,0,0-0.1,0-0.2c0-0.1,0.2-0.2,0.3-0.3c0.1,0,0.1,0,0.1,0c0-0.1-0.1-0.1-0.1-0.2 c0-0.1,0.1-0.1,0.3-0.1c0.1,0,0.2,0,0.3-0.1c0,0,0.1,0,0.1-0.1c0.2-0.1,0.3-0.2,0.3-0.2c0,0,0.1,0.1,0.1,0.1c0,0.1-0.2,0.1-0.3,0.3 c0,0.1,0,0.1-0.1,0.2c0,0,0,0.1-0.1,0.1c0,0-0.1,0.1-0.3,0.2c-0.2,0.1-0.2,0-0.3,0.1C263.8,11.2,263.7,11.3,263.6,11.3"></path><path fill="#A11E22" d="M265.1,7.6c0,0.1-0.1,0.1-0.1,0.2c0,0.1,0.3,0.1,0.6,0c0.2,0,0.6-0.1,0.8-0.4c0,0,0.1-0.2,0.1-0.3 c0-0.1-0.2-0.1-0.3-0.1c-0.1,0-0.2,0-0.3,0.1c-0.2,0.1-0.2,0.2-0.3,0.1c-0.1,0,0-0.2,0-0.2c-0.1,0-0.2,0.1-0.3,0.2 c0,0-0.1,0.1-0.1,0.2C265.1,7.5,265.1,7.5,265.1,7.6"></path><path fill="#A11E22" d="M287.2,5.2c0,0.1,0.3,0.4,0.7,0.3c0.2,0,0.3-0.2,0.7-0.2c0.2,0,0.3,0,0.3,0c0,0-0.3-0.1-0.6-0.1 c-0.2,0-0.1,0-0.7,0C287.3,5.2,287.3,5.2,287.2,5.2"></path><path fill="#A11E22" d="M265.4,5.8c-1,0.7-0.9,0.7-1,0.8c-0.9,0.7-1.1,0.7-1.6,1.2C262.5,8,262,8.5,262,8.6c0.1,0.1,0.9-0.6,2.5-1.3 c0.3-0.1,0.2-0.1,1.3-0.6c1.2-0.5,1.4-0.6,1.8-0.8c0.7-0.4,0.6-0.5,1-0.6c0.5-0.2,0.9-0.2,1.5-0.6c0.3-0.2,0.3-0.3,0.3-0.3 c-0.1-0.2-1.3-0.1-1.5-0.1c-0.3,0-0.7,0.1-1.3,0.2c-0.2,0.1-0.3,0.1-0.5,0.2c-0.4,0.2-0.8,0.4-1.3,0.7 C265.8,5.5,265.6,5.6,265.4,5.8"></path><path fill="#A11E22" d="M300.8,22c0,0-0.1-0.4-0.1-0.6c0-0.2,0.2-0.8-0.2-1.6c-0.4-0.9-0.6-1.1-0.6-1.5c0-0.3-0.2-0.2-0.5-0.8 c-0.4-0.6-0.2-0.6-0.2-0.9c0-0.2-0.1-0.1-0.2-0.2c-0.1-0.1-0.1-0.1-0.1,0c0,0.1-0.1,0.1-0.1,0.1c0,0-0.2-0.3-0.2-0.3l-0.2-0.2 c-0.2-0.2-0.2-0.1-0.1-0.3c0.1-0.1,0-0.1,0-0.2c0-0.1-0.1-0.3-0.1-0.4c0-0.1,0.2,0.2,0.2,0.3c0.1,0.1,0.1,0.2,0.3,0.4 c0,0.1,0-0.4,0-0.4l0.1,0c0.1,0,0.1,0.3,0.2,0.4c0.1,0.2,0.1,0.3,0.2,0.3c0.1,0.1,0.1,0,0.1-0.1s0-0.2-0.1-0.4 c-0.1-0.2-0.1-0.2-0.3-0.7c-0.2-0.5,0-0.5-0.6-1.3c-0.5-0.9-1.4-2.1-2-2.6c-0.6-0.5-0.5-0.5-0.8-0.8c-0.3-0.3-0.9-0.8-1.2-1.2 c-0.4-0.4-0.3-0.3-0.2-0.3c0.2,0.1,0.6,0.1-0.3-0.5c-0.9-0.6-2.5-1.9-2.6-2c0-0.1-0.2,0-0.3-0.1c-0.1-0.1-0.4-0.2-0.6-0.3 c-0.2,0-0.6-0.2-0.6-0.3c0,0-0.3,0-1,0c-0.6,0,0.1,0.1,0.3,0.1c0.2,0.1,0,0.1-0.1,0.1c-0.2,0-0.3-0.1-0.5-0.1 c-0.2,0-0.6-0.1-0.6-0.1s-0.5-0.1-0.7-0.2c-0.2-0.1-0.2,0-0.3,0c-0.1,0,0,0.1,0,0.1c0,0-0.2,0-0.3,0c-0.1,0,0-0.1,0-0.1 c0,0-0.5,0-0.8,0c-0.3,0-0.3-0.1-0.4-0.2s-0.1,0.1-0.1,0.1c0.1,0.1,0,0.1-0.3,0.1c-0.3,0-0.1,0-0.1-0.1c0,0,0.1-0.1,0.1-0.2 c0-0.1-0.1-0.2-0.1-0.2c0,0-0.1,0-0.3-0.1c-0.2,0-0.4,0-0.6,0c-0.2,0-0.5-0.2-0.7-0.2c-0.2,0-0.1,0-0.1,0.1c0,0,0,0-0.4,0.2 c-0.4,0.1-0.1,0-0.3,0c-0.2,0-0.5,0.1-0.5,0.1s0.1,0.2,0.2,0.3c0.1,0.1-0.1,0-0.3,0c-0.2,0-0.2,0-0.4,0.1c-0.2,0.1,0.3,0.1,0.6,0.3 c0.3,0.2-0.2,0-0.5-0.1c-0.3-0.1-0.3,0-0.3,0l-0.2,0.1l0.4,0.2l0,0.1l-0.3-0.1c0,0-0.1-0.1-0.4-0.2c-0.2-0.1,0.2,0.2,0.2,0.2 l0.2,0.2l0.2,0.1l0.3,0l0.5,0.1l0.3,0.3c0,0-0.4-0.1-0.5-0.2c-0.1-0.1-0.2-0.1-0.2-0.1c-0.1,0-0.1,0-0.1,0.1c0,0.1,0.1,0.1,0.1,0.2 c0,0.1-0.1,0.1-0.1,0.1l-0.3,0c0,0-0.1-0.1-0.1-0.2c0-0.1,0.2-0.1,0.2-0.1s0-0.1,0-0.2c0-0.2,0,0-0.3-0.2C281,6.2,281,6.1,281,6.1 l-0.2-0.2c-0.2-0.2-0.2,0-0.5-0.2c-0.3-0.1-0.1,0-0.2,0.2c0,0.2-0.1,0.2,0,0.3c0.1,0.1,0,0.1,0.1,0.1c0.1,0,0.3,0.1,0.5,0.2 c0.2,0.1,0,0.1,0,0.1c0,0-0.5-0.2-0.5-0.2s-0.3-0.1-0.6-0.2c-0.3,0-0.1,0-0.4,0c-0.3,0-0.1,0-0.3-0.1c-0.2,0,0,0.1,0.2,0.1 c0.1,0,0.3,0.1,0.3,0.1l0,0.1l-0.2,0.1c-0.2,0.1-0.1,0-0.2-0.2c-0.1-0.2-0.3,0.1-0.3,0.1s0,0-0.3,0c-0.3,0-0.1,0-0.1-0.1 c0-0.1,0,0-0.1,0c-0.1,0-0.2,0-0.3,0c-0.2,0,0,0-0.4,0.1c-0.3,0.1-0.1,0.1-0.1,0.1s0,0-0.1,0.1c-0.1,0.1-0.1,0-0.5-0.1 c-0.3-0.1,0.1-0.1,0.1-0.1s0.1-0.1,0.2-0.2c0-0.1-0.4,0-0.4,0l-0.2,0.1c0,0,0.1,0.2,0.1,0.3c0,0.1,0,0.2-0.3,0 c-0.3-0.1-0.2,0.1-0.3,0.1c0,0-0.2,0.1-0.2,0.2c0,0.1,0.1,0.2,0.1,0.2s-0.2,0-0.3,0c-0.1,0-0.1-0.1-0.4-0.2c-0.2-0.1-0.1,0-0.1,0.1 c0,0.1,0.2,0.1,0.3,0.2c0.1,0,0,0.1-0.2,0.1c-0.2,0-0.1,0-0.2-0.1c-0.1,0-0.1-0.1-0.2-0.1c0-0.1-0.1-0.1-0.1-0.2c0-0.1,0.1,0,0-0.2 c-0.1-0.1-0.1-0.1-0.3-0.1c-0.2,0-0.1-0.1,0-0.1c0.1-0.1,0.3,0.2,0.5,0.2c0.2,0,0.3,0,0.4,0s0.2,0,0.4,0c0.2,0,0.2,0,0.3-0.1 c0.1-0.1,0.1-0.1,0.1-0.1c0,0-0.1-0.2-0.1-0.2s-0.3-0.1-0.4-0.2c-0.2,0-0.3-0.2-0.6-0.2c-0.3,0-0.2,0-0.4-0.1c-0.2,0-0.1,0-0.2-0.1 c-0.1-0.1,0-0.1-0.1-0.1c-0.1,0-0.3,0.1-0.3-0.1c0-0.1-0.1,0-0.1,0c-0.1,0-0.1-0.1-0.3-0.1c-0.2,0-0.1,0-0.2,0c-0.1,0-0.2,0-0.3,0.1 c-0.1,0-0.1,0.1-0.2,0c-0.1,0-0.1,0.2-0.2,0.1c-0.1,0,0-0.1-0.1-0.1c-0.1,0-0.1,0-0.1,0c0,0-0.1,0.1-0.2,0.1c-0.1,0,0,0-0.1,0 c-0.1,0,0,0-0.1,0.1c-0.1,0-0.1,0-0.1,0c0,0-0.1,0-0.2,0c0,0-0.1,0-0.2,0c-0.1,0-0.1,0-0.4,0.2c-0.3,0.1,0,0,0.1,0 c0.1,0,0.2,0,0.2,0s0.3-0.1,0.4-0.1c0.1,0,0,0.1-0.1,0.1c-0.1,0,0,0-0.1,0.1c-0.1,0.1,0,0-0.2,0.1c-0.2,0.1-0.3,0.2-0.5,0.4 c-0.2,0.2-0.2,0.1-0.2,0.2c-0.1,0.1-0.3,0.1-0.6,0.3c-0.3,0.2,0.1,0,0.2,0c0.1,0-0.3,0.1-0.2,0.1c0,0-0.1,0.1-0.1,0 c0-0.1-0.1,0-0.1,0c-0.1-0.1-0.1,0.1-0.1,0.1c0,0.1-0.1,0-0.2,0.1c-0.1,0.1-0.1,0-0.1,0.1c0,0.1-0.2,0-0.2,0.1 c0,0.1-0.2,0.1-0.2,0.1s-0.2,0.1-0.2,0.1c-0.1,0-0.1,0.2-0.1,0.2s-0.1,0.1-0.2,0.1c-0.1,0,0,0,0,0.1c0,0,0,0,0,0.1c0,0-0.1,0-0.2,0 c-0.1,0,0,0.1,0.1,0.1c0.1,0,0.1,0,0,0.1c0,0.1-0.1,0-0.1,0.1c-0.1,0.1,0.1,0.1,0.1,0.1s0.1,0.1,0.3,0.1c0.2,0,0.2-0.1,0.3-0.2 C269,9,269,9,269.1,9c0.1,0,0.1-0.1,0.1-0.2c0.1-0.1,0,0.1,0.1,0.1c0,0.1,0,0,0,0.1c0,0.1,0,0.1,0,0.2c0,0.1,0,0.1,0,0.3 c0,0.1,0,0.1,0,0.2c0,0.1-0.1,0-0.1,0c-0.1,0,0,0.1,0,0.3c0,0.2,0.1,0,0.3,0c0.2,0,0.1,0,0.1-0.1c0.1-0.1,0,0,0-0.2 c0-0.1,0.2,0,0.2,0h0.3c0.2,0,0.1-0.2,0.1-0.3c0-0.1,0.1-0.1,0.1-0.2c0-0.1,0,0,0.1-0.1c0.1-0.1,0,0,0.1,0c0.1,0,0.2-0.1,0.2-0.1 c0,0,0,0,0.1,0c0.1,0,0-0.1,0-0.1s0,0,0.1-0.1c0,0,0.1,0,0.1-0.1c0-0.1-0.1-0.1-0.1-0.1l-0.1-0.1l0-0.2c0,0,0.2-0.2,0.2-0.2 c0,0,0.1,0,0.2-0.2c0.2-0.1,0.2-0.1,0.3-0.1c0.1,0,0.3-0.1,0.3-0.1s0.2-0.1,0.2-0.1c0,0,0-0.1,0-0.1c0,0,0.1-0.1,0.1-0.1 c0,0,0.1,0,0.1-0.1c0.1-0.1,0.1,0.1,0.1,0.1h0.3l0.1,0c0,0,0,0.1,0,0.1c0,0-0.4,0.1-0.4,0.1s-0.3,0.2-0.4,0.3C272,7.9,272,8,271.9,8 c-0.1,0.1,0,0.2,0,0.2s-0.1,0.1-0.1,0.2c-0.1,0.1,0.1,0.2,0.1,0.2c0,0,0.4,0,0.4,0s0.1,0,0.3,0c0.2,0,0.1,0,0.3-0.1 c0.2-0.1,0.5-0.1,0.5-0.1s0.2,0.1,0.3,0.1c0.1,0.1-0.2,0.1-0.2,0.1c0,0-0.2,0.1-0.2,0.1s-0.1,0-0.2,0c-0.1,0-0.2,0-0.3,0 c-0.2,0-0.2,0-0.3,0.1c-0.1,0-0.1,0.1-0.2,0.1c-0.1,0.1,0.1,0.2,0.1,0.2c0.1,0.1,0,0,0,0.1c0,0,0,0.1-0.1,0.2 c-0.1,0.1-0.1,0-0.1-0.1c-0.1-0.1-0.1-0.1-0.3-0.1c-0.1,0-0.2,0.3-0.3,0.3c0,0,0,0.1,0,0.1s-0.1,0.1-0.1,0.2c0,0.1,0,0.1,0,0.1 s0,0.1-0.1,0.1c-0.1,0-0.2,0-0.2,0s-0.1,0.1-0.1,0.1s0,0-0.1,0c-0.1,0-0.2,0-0.2,0c0,0,0-0.1-0.1-0.1c-0.2,0-0.3,0.1-0.5,0.2 c-0.2,0-0.5,0.1-0.6,0.1s0,0-0.1-0.1c-0.1-0.1-0.1-0.1-0.1-0.1c0,0-0.1,0-0.2,0c-0.1,0,0,0-0.2,0.1c-0.2,0.1-0.1,0-0.1,0 c0,0,0,0-0.2-0.1c-0.1-0.1,0,0-0.1-0.1c0,0-0.1-0.1-0.1-0.1s-0.1,0-0.2,0c0,0,0,0,0,0.1s-0.1,0.1-0.2,0.1c-0.1,0.1-0.1,0-0.3,0.1 c-0.2,0.1-0.1,0.1-0.1,0.1s0,0-0.1-0.1c-0.1,0-0.1,0-0.2,0s-0.2,0.1-0.3,0.1c-0.1,0.1,0,0-0.1,0.2c-0.1,0.1-0.1,0.1-0.3,0.2 c-0.2,0.1-0.3,0.2-0.5,0.3c-0.1,0-0.1,0-0.2,0c-0.1,0-0.2,0.2-0.2,0.2s-0.1,0.1-0.1,0.2c-0.1,0.1-0.1,0-0.2,0c-0.1,0-0.1,0-0.1,0.1 c0,0,0,0-0.1,0.2c-0.1,0.1,0,0-0.1,0c-0.1,0-0.1,0-0.2,0c0,0,0,0,0-0.1c0-0.1-0.1,0-0.1,0c-0.1,0,0,0.1-0.1,0.2 c0,0.1-0.1,0.1-0.2,0.1c-0.2,0-0.1,0-0.1-0.1c0-0.1,0,0-0.1,0c-0.1,0-0.2,0.1-0.3,0.1c-0.1,0-0.2,0.2-0.2,0.2s0.1,0.1,0.2,0.1 c0.1,0,0.1,0.1,0.1,0.1c0,0,0,0.1,0,0.1s0,0.1,0,0.2c0,0.1,0.1,0.1,0.1,0.2c-0.1,0.1,0,0.1,0,0.2c0,0.1-0.1-0.1-0.1,0 c-0.1,0.1,0,0.1,0,0.2c0,0.2,0,0.1,0,0.3c0,0.2-0.3,0.4-0.3,0.4h-0.2c0,0-0.2-0.1-0.3-0.1c-0.2,0,0,0-0.4-0.1c-0.4-0.1-0.5,0-0.5,0 l-0.3,0.2c0,0-0.2,0.2-0.3,0.3c-0.1,0.1-0.1,0.2-0.1,0.4c-0.1,0.2-0.1,0.2-0.2,0.4c-0.1,0.2-0.1,0.1-0.4,0.5c-0.3,0.3,0,0.3-0.2,0.4 c-0.2,0.2,0.1,0.3,0.3,0.3c0.2,0,0.1,0.1,0.2,0.3c0,0.2,0.2,0.1,0.3,0c0.1-0.1,0.1-0.1,0.2-0.1c0.1,0,0.1,0.1,0.3,0.1 c0.1,0,0.2,0,0.2-0.1c0-0.1,0.1,0,0.1,0s0.2,0,0.2-0.2c0-0.1,0.1-0.1,0.1-0.1c0,0,0.3-0.1,0.3-0.1s0.1-0.1,0.1-0.2 c0-0.1,0.1-0.1,0.2-0.2c0.1-0.1,0-0.3,0-0.4c0-0.1,0.1,0,0.1-0.1c0.1,0,0,0,0,0l0,0h0.2c0.2,0,0.1-0.3,0.1-0.3s0-0.1,0-0.2 c0-0.1,0.1-0.1,0.2-0.1c0,0,0.1,0,0.2,0c0.1,0,0.2-0.1,0.2-0.1s0.1-0.1,0.1-0.2c0,0,0.2-0.1,0.2-0.1s0-0.1,0.1-0.2 c0-0.1,0-0.1,0-0.2c0-0.1,0-0.1,0.1-0.1c0.1,0,0.1,0,0.2-0.1c0.1-0.1,0,0,0.1,0c0.1,0,0.2,0.1,0.2,0.1s0.1,0,0.3,0.1 c0.2,0.1,0.1,0.1,0.2,0c0.1-0.1,0.2-0.1,0.2-0.2c0.1-0.1,0,0,0.2-0.1c0.1-0.1,0,0,0.1-0.1c0.1-0.1,0,0,0.2-0.1c0.2,0,0.2-0.1,0.2,0 c0.1,0.1,0.1,0.1,0.2,0.1c0.1,0,0,0.1,0,0.2c0,0.1,0,0.1,0.1,0.3c0.1,0.2,0.1,0.2,0.2,0.2c0.1,0.1,0.1,0.1,0.2,0.3 c0.1,0.2,0.1,0.1,0.3,0.1c0.2,0,0.1,0.2,0.2,0.2c0.1,0,0.1,0,0.1,0.1c0,0.1,0,0.1,0.2,0.1c0.2,0,0.2,0.3,0.2,0.3c0,0,0,0.2,0,0.2 c-0.1,0.1-0.1,0.1-0.1,0.1c0,0.1-0.1,0-0.1,0.1c0,0,0,0.1,0.1,0.1c0.1,0,0.1-0.1,0.2-0.1c0.1,0,0.1-0.1,0.1-0.1s0-0.1,0.2-0.1 c0.1-0.1,0.1-0.1,0.1-0.1l-0.1-0.2c0,0-0.1-0.1-0.1-0.2c-0.1-0.1,0.1-0.2,0.1-0.2l0.3,0c0,0,0.1,0.1,0.1,0.1 c0.1,0.1,0.1,0.1,0.1,0.1c0,0,0.1-0.1,0.1-0.1s0-0.1-0.2-0.3c-0.2-0.3-0.1-0.1-0.2-0.1c-0.1-0.1-0.3-0.1-0.3-0.1s0-0.1,0-0.2 c0-0.1-0.2,0-0.2,0s-0.1,0-0.2,0s-0.1-0.1-0.1-0.1s-0.1-0.1-0.2-0.1c-0.1-0.1,0-0.1,0-0.1s0-0.1,0-0.2c0-0.1-0.1-0.1-0.2-0.1 c-0.1-0.1-0.2-0.2-0.1-0.3c0-0.1,0.1-0.1,0-0.2c-0.1-0.1,0.1-0.1,0.4-0.1c0.2,0,0,0.1,0.1,0.2c0.1,0.1,0.1-0.1,0.2-0.1 c0.1-0.1,0.1,0,0.1,0.1c0,0.1,0,0.1,0.1,0.3c0,0.2,0.1,0.1,0.3,0.2c0.2,0,0.1,0.1,0.2,0.2c0.1,0.1,0.2,0.1,0.3,0.2 c0.1,0.1,0.1,0.1,0.2,0.2c0.2,0.1,0.1,0.1,0.1,0.2c0.1,0.1,0,0.1-0.1,0.2c-0.1,0.1,0,0.1-0.1,0.2s-0.1,0.2,0,0.2c0,0,0.1,0,0.1,0 c-0.1,0.1,0,0.1,0.1,0.2c0.1,0.1,0,0.1,0.1,0.2c0.1,0.1,0,0.1,0.1,0.2s0,0.1,0.1,0.2c0.1,0.1,0.1,0.1,0.2,0.1c0,0,0.1,0,0.2,0 c0.1,0,0.2,0,0.2,0s0.2,0,0.2,0c0,0,0.2,0.3,0.2,0.3s0.1,0,0.1-0.1c0-0.1,0-0.1,0-0.1c0-0.1,0.1,0,0.1-0.1c0-0.1-0.1-0.2-0.1-0.2 s-0.1-0.1-0.2-0.3c-0.1-0.1-0.2-0.2-0.2-0.3c0-0.2,0.1-0.1,0.1-0.1c0,0,0.1,0.2,0.2,0.1c0.1,0,0.1-0.1,0-0.2c0-0.1,0.1,0,0.2-0.1 c0.1-0.1,0.1,0,0.2,0c0.1,0,0.1,0,0.1-0.1c0.1,0,0.2,0.1,0.2,0.1s0.1,0,0.2,0.1c0.1,0.1,0.1,0,0.2,0s0.1,0,0.3-0.1 c0.2-0.1,0,0,0.2,0c0.2,0,0.2,0,0.4,0c0.2,0,0.1,0.1,0.1,0.1c0,0,0,0-0.2,0c-0.1,0,0,0.2,0,0.3c0,0.1-0.3,0.2-0.3,0.2h-0.4 c-0.2,0-0.1-0.2-0.2-0.1c-0.1,0-0.1,0-0.2,0.1c-0.1,0.1,0,0.1,0.2,0.1c0.1,0,0.1,0,0.1,0.1c0,0.1,0,0.1,0.1,0.1c0.1,0.1,0,0,0,0.1 c0,0.1-0.2,0-0.2,0s-0.1,0.1-0.1,0.1c0,0.1,0.2,0,0.4,0.1c0.2,0,0,0.2,0,0.3s0,0.1,0.2,0.1c0.2,0,0.1,0,0.2,0.1c0.1,0.1,0.1,0,0.2,0 c0.1,0.1,0,0.2,0.1,0.2c0.1,0,0.2,0,0.4,0c0.2,0,0.1-0.1,0.1-0.2c0-0.1,0.1-0.1,0.4,0c0.2,0.1,0.3,0.2,0.3,0.2s0.3,0,0.3,0 c0.1,0,0.3-0.1,0.5-0.3c0.2-0.1,0.1,0,0.3,0.1c0.2,0.1,0.1-0.1,0.2-0.1c0.1,0,0,0.1,0,0.2c0,0.1,0,0.1,0,0.2c0,0.1,0,0.1,0.1,0.1 c0.1,0-0.1,0.1,0,0.3c0.1,0.2,0,0.1-0.1,0.3c0,0.1-0.2,0.4-0.2,0.6c0,0.2-0.1,0.5-0.2,0.6c-0.1,0.1-0.1,0-0.4,0.1 c-0.3,0-0.3,0-0.4,0c-0.1,0-0.1,0-0.1-0.1c0-0.1-0.1,0-0.3,0c-0.1-0.1-0.1,0-0.3,0s0,0.1-0.1,0.1c-0.1,0,0,0-0.2,0.1 c-0.2,0.1-0.1,0-0.5,0c-0.4-0.1-0.1,0-0.5-0.1c-0.4-0.1-0.3-0.1-0.6-0.1c-0.4,0-0.1,0-0.1-0.2c0-0.2,0,0-0.2-0.1 c-0.2-0.1-0.2,0-0.5,0c-0.3,0-0.1,0-0.1-0.1c0-0.1,0-0.1-0.1-0.1c-0.1-0.1-0.1,0-0.4,0s-0.2,0-0.4,0.1c-0.2,0.1-0.2,0.3-0.2,0.4 c0,0.1,0,0.2,0,0.4c0,0.1-0.3,0.3-0.7,0.1c-0.4-0.2-0.4-0.3-0.6-0.3c-0.2,0-0.4-0.2-0.4-0.3c-0.1-0.1-0.2-0.2-0.2-0.2 c0,0-0.5-0.1-0.5-0.1l-0.5-0.1c0,0-0.1,0-0.2-0.1c-0.1-0.1-0.2-0.1-0.3-0.4c-0.1-0.3,0.2-0.3,0.2-0.3s0-0.1,0.3-0.3 c0.3-0.2-0.1-0.1-0.1-0.3c-0.1-0.2,0.1-0.1,0.3-0.3c0.1-0.1-0.1-0.1-0.2,0c-0.1,0.1-0.1,0.1-0.1-0.1c-0.1-0.1-0.3,0.1-0.3,0.1h-0.4 c0,0-0.3-0.1-0.6,0.1c-0.3,0.1-0.2,0-0.4-0.1c-0.1-0.1-0.4,0.1-1,0.1c-0.6,0-0.9,0.5-1.1,0.5c-0.2,0.1-0.3,0-0.4,0 c-0.1-0.1-0.3,0-0.3,0s-0.3,0-0.3-0.2c0-0.2-0.3,0.1-0.3,0.4c-0.1,0.4-0.5,0.5-0.8,0.7c-0.4,0.2-0.6,1-0.7,1.4 c-0.1,0.3-0.5,0.8-0.7,0.8c-0.2,0-0.4,0.3-0.5,0.5c-0.1,0.2-0.2,0.2-0.3,0.4c-0.1,0.2-0.3,0.6-0.4,0.7c-0.1,0.1-0.1,0.1-0.1,0.2 c0,0.1-0.1,0.4-0.3,0.8c-0.2,0.4-0.2,0.6-0.1,0.8c0,0.1,0.1,0.4,0,0.4c-0.1,0,0,0.2,0,0.5c0,0.3,0,0.9,0,1.1c0,0.1,0,0.3,0,0.4 c0,0.2-0.3,0.3-0.2,0.5c0.1,0.2,0.2,0.3,0.1,0.5c-0.1,0.1,0,0.4,0,0.4s0,0.1,0.1,0.2c0,0.1,0.1,0.2,0.2,0.2c0.1,0,0.1,0,0.1,0.1 c0,0.1,0,0.1,0,0.2c0.1,0.1,0.1,0,0.1,0.1c0.1,0.1,0,0.1,0.1,0.2c0.1,0.1,0.1,0.2,0.2,0.3c0.1,0.1,0.1,0.2,0.2,0.3 c0,0.1,0,0.1,0,0.2c0,0.1,0,0.1,0,0.2c0,0.1,0.1,0.1,0.2,0.2c0.1,0.1,0,0.1,0.1,0.2c0.2,0.1,0.1,0,0.1,0.2c0.1,0.1,0.1,0.1,0.3,0.2 c0.2,0.1,0.2,0.2,0.3,0.5c0.1,0.3,0.4,0.3,0.6,0.4c0.1,0.1,0.1-0.1,0.1-0.1c0,0,0.1-0.1,0.1-0.1s0.1-0.1,0.2-0.1 c0.1,0,0.1,0,0.3-0.1c0.1,0,0.2,0,0.4,0.1c0.2,0,0.1,0,0.2,0c0.1,0,0.1,0,0.2,0.1c0.2,0.1,0.1,0,0.2,0c0.1,0,0.1-0.1,0.1-0.1 c0-0.1,0.1,0,0.2-0.1c0.1,0,0.1,0,0.2-0.1c0.1-0.1,0.2-0.1,0.3-0.1c0.1,0,0.1,0,0.2-0.1c0-0.1,0.1-0.1,0.1-0.1c0,0,0.1,0,0.2,0 c0.1,0,0.1,0,0.1,0s0.1,0,0.2,0c0.1,0,0.1,0.1,0.1,0s0.1-0.1,0.1,0c0,0.1,0.1,0,0.1,0s0.1,0,0.3,0.2c0.2,0.2,0.1,0.2,0.2,0.2 c0,0,0.1,0.1,0.1,0.1c0.1,0,0,0.1,0,0.2c0,0.1,0,0,0,0.1c0,0.1,0.1,0.1,0.2,0.2c0.1,0.1,0.1,0.1,0.2,0c0.1,0,0.1,0,0.2,0 s0-0.1,0.1,0c0.1,0.1,0-0.1,0.1-0.1c0,0,0,0,0.2,0c0.2,0,0.1-0.1,0.1-0.1c0-0.1,0.1,0.1,0.2,0.1c0.1,0,0.1,0.1,0.1,0.2 c0,0.1,0.1,0.1,0.2,0.1c0.1,0,0.1,0.1,0.2,0.2c0.1,0.1,0.1,0,0,0.1c0,0.1,0,0.3,0,0.4c-0.1,0.1,0,0.1,0,0.2c0,0.1,0,0.2,0,0.5 c0,0.3-0.1,0.6-0.2,0.7c-0.1,0.1,0.1,0.1,0.2,0.1c0.1,0.1,0.1,0.1,0.2,0.2c0.1,0.1,0.1,0.3,0.2,0.3c0.1,0,0.2,0,0.2,0.1 c0,0.1,0.1,0.1,0.3,0.3c0.2,0.2,0.3,0.3,0.4,0.5c0.1,0.2,0,0.1,0.2,0.4s0.3,0.5,0.5,0.8c0.1,0.2,0.3,0.3,0.1,0.5 c-0.2,0.2,0,0.1,0.3,0.4c0.3,0.2,0.4,0.8,0.3,1c-0.1,0.2-0.3,0.3-0.3,0.6c0,0.3,0,0.6,0,0.8c0,0.2,0.1,0.4,0.1,0.4s0,0.2,0.2,0.5 c0.2,0.3,0.9,1,1.2,1.2c0.3,0.2,0.2,0.6,0.4,0.9c0.2,0.3,0.5,0.7,0.7,1c0.2,0.3,0.3,0.2,0.4,0.4c0.2,0.2,0.8,0.9,0.9,1 c0.1,0.1-0.1,0.1,0,0.2c0.1,0.1,0.2,0.2,0.3,0.2c0.1,0,0.1,0,0.2,0.1c0.1,0.1,0.1,0,0.2-0.1c0.1-0.1,0.1,0,0.3,0 c0.2,0.1,0-0.1,0.1-0.2c0.1-0.1,0.1,0,0.2,0c0.1,0,0.1,0,0.2,0c0.1,0,0.1,0,0.2,0c0.2,0,0,0,0.1,0c0.1,0,0.1,0,0.1-0.1 c0-0.1,0.1-0.1,0.1-0.1l0.3-0.1c0,0,0.1-0.1,0.2-0.3s0.1-0.2,0.2-0.3c0.2,0,0-0.1,0.1-0.2c0-0.1,0.1-0.2,0.2-0.3 c0.1-0.2,0.1-0.2,0.2-0.2c0.1,0,0-0.1,0-0.2c0-0.1,0-0.1,0.1-0.3c0.1-0.2,0-0.1,0-0.3c0-0.2,0,0-0.1-0.1c-0.1-0.1,0.1-0.2,0.1-0.2 l0.2-0.1l0.4-0.1l0.1-0.1c0,0,0-0.1,0-0.2c0-0.1,0-0.2,0-0.2s0-0.1,0-0.2c0-0.1,0-0.1-0.1-0.2c-0.1-0.1,0-0.1,0-0.2 c0-0.1-0.1-0.3-0.2-0.5c0-0.1,0-0.1,0.1-0.2c0.1-0.1,0.1-0.1,0.1-0.2c0.1-0.1,0.1-0.1,0.3-0.2c0.2-0.1-0.1,0,0.1-0.2 c0.2-0.2,0.1-0.1,0.4-0.3c0.3-0.2,0.4-0.1,0.4-0.1l0.2-0.2l0.2-0.2l0.1-0.3l0.2-0.1c0,0,0-0.1,0-0.3c-0.1-0.2-0.1-0.3-0.1-1 c0-0.7,0-0.2-0.1-0.4c-0.1-0.3,0,0-0.2-0.1c-0.2-0.1,0-0.3,0-0.5c0-0.2-0.2-0.5-0.2-0.5s0-0.2,0-0.3c0.1-0.1-0.4-0.1-0.4-0.1v-0.5 v-0.3l0.4-0.3c0,0,0.2-0.3,0.2-0.4c0-0.1,0.1-0.1,0.3-0.3c0.2-0.2,0,0,0.1-0.1c0-0.1,0.3-0.1,0.3-0.1s0.2-0.1,0.3-0.4 c0,0,0.4-0.6,0.8-0.9c0.4-0.3,0.7-0.5,1.8-1.8c1.1-1.3,1.1-2.5,1.1-2.8c0-0.4-0.3,0-0.4,0.1c-0.1,0.1-0.5,0-0.8,0.1 c-0.4,0.1-0.8,0.1-0.8,0.1s-0.5,0.1-0.7,0.1c-0.3,0-0.4-0.2-0.4-0.7c0-0.5-0.8-0.9-0.8-0.9l-1-0.7c0,0-0.1-0.4-0.2-0.8 s-0.1-0.4-0.5-0.7c-0.4-0.3-0.4-0.5-0.4-0.9c0-0.5-0.2-0.5-0.3-0.6c-0.1-0.1-0.4-0.4-0.4-0.5c0-0.1,0-0.1,0.1-0.3 c0.1-0.1-0.2-0.4-0.2-0.4s-0.2-0.2-0.3-0.6c-0.1-0.3-0.1-0.2-0.3-0.8c-0.2-0.6-0.4-0.6-0.5-0.8c-0.1-0.2,0.8,0.9,0.8,0.7 c0-0.2,0.1-0.4,0.3-0.6c0.1-0.2,0,0.3-0.1,0.6c-0.1,0.3,0.2,0.3,0.2,0.3l0.6,0.6c0,0,0,0.4,0.5,0.9c0.4,0.5,0.3,0.4,0.5,0.8 c0.2,0.4,0,0.3,0.3,0.7c0.2,0.4,0.5,0.4,0.7,0.8c0.2,0.4,0.4,0.7,0.6,1c0.2,0.3,0.2,0.4,0.2,0.5s0,0.6,0.1,0.7 c0.1,0.1,0.3,0.8,0.6,0.8c0.4,0.1,0.3-0.3,0.6-0.3c0.3,0,0.3,0,0.6-0.1c0.3-0.1,0.2-0.1,0.4-0.1c0.2,0,0.2-0.1,0.5-0.4 c0.3-0.3,0.2-0.1,0.8-0.2c0.6,0,0.3-0.4,0.3-0.4s0.1-0.2,0.6-0.5c0.5-0.2,0.2,0,0.5-0.2c0.3-0.2,0-0.2,0.2-0.3c0.2,0,0.3,0,0.4-0.3 c0.1-0.3,0.2-0.1,0.5-0.2c0.3,0,0-0.1-0.1-0.5c0-0.4,0-0.3,0.3-0.2c0.3,0.1,0-0.2,0.2-0.6c0.2-0.4,0.2-0.5,0.1-0.7 c-0.1-0.1-0.5-0.3-0.5-0.3s-0.3-0.2-0.7-0.4c-0.4-0.2-0.1-0.1-0.2-0.3c-0.1-0.2-0.1-0.2-0.1-0.5c-0.1-0.3-0.1,0.1-0.3,0.2 c-0.2,0.1-0.2,0.2-0.3,0.3c-0.1,0.2,0,0.2-0.2,0.3c-0.2,0.1-0.2,0.1-0.4,0c-0.2,0-0.2,0.1-0.4,0.1c-0.2,0-0.2-0.1-0.3-0.3 c-0.1-0.2-0.6-0.5-0.6-0.5l0-0.4l-0.3-0.3c-0.3-0.3-0.2-0.4-0.2-0.4l-0.4-0.2c0,0-0.2-0.1-0.6-0.3c-0.4-0.2,0-0.2,0.1-0.3 c0.1-0.1,0.1,0,0.4,0c0.3,0,0.2,0,0.2-0.2c0-0.2,0.1,0.1,0.5,0.1c0.3-0.1,0,0,0.2,0.3c0.2,0.2,0.4,0.7,0.8,0.8 c0.4,0.1,0.3,0.3,0.3,0.3s0.1,0.1,0.4,0.2c0.3,0.1,0.3,0,0.8-0.1s0.3,0.1,0.6,0.4c0.3,0.4,0.1,0.1,1,0.2c0.2,0,0.3,0,0.3,0.1 c0,0,0,0,0,0.1c0.2,0.2,0.3-0.1,0.3-0.1s0.1,0.1,0.1,0.1c0,0,0.4-0.2,0.7-0.2c0.3,0,0.7-0.1,0.9,0c0.2,0.1,0.2,0.3,0.3,0.2 c0.2,0,0.1,0.2,0.3,0.5c0.1,0.3,0.3,0.1,0.3,0.1s0,0.2,0.1,0.2c0.1,0.1,0.3,0.2,0.5,0.2c0.2,0,0.2,0,0.1,0.1 c-0.1,0.1-0.2,0.2-0.4,0.1c-0.2-0.1,0,0.3,0.4,0.6c0.4,0.4,0.4,0.1,0.6,0c0.3-0.1,0.1-0.4,0.1-0.6c0.1-0.2,0.2,0.3,0.1,0.6 c0,0.3,0.1,0.4,0.2,0.6c0.1,0.3,0,0.5,0.3,1.5c0.3,1,1,3.2,1.3,3.6c0.2,0.4,0.3,0.3,0.4,0.1c0.1-0.2,0.3-0.2,0.3-0.2s0-0.2,0-0.2 c0-0.1,0-0.1,0.2-0.3c0.2-0.2,0-0.1,0-0.1s0-0.1,0-0.3c0-0.3,0.1-0.3,0.1-0.3l0.1-0.3c0,0,0-0.3,0-0.7s0-0.5,0-0.7 c0-0.2,0-0.1,0.2-0.1c0.1,0,0.1-0.1,0.2-0.2c0-0.1,0.1,0,0.1,0c0.1,0,0.2-0.1,0.2-0.2c0-0.1,0.2-0.3,0.2-0.3s0.1-0.3,0.2-0.4 c0.1-0.1,0.1-0.2,0.2-0.3c0.1-0.1,0.2-0.1,0.2-0.3c0-0.1,0-0.1,0.1-0.1c0.1,0,0.1,0,0.2,0c0,0,0.2-0.3,0.2-0.3s0-0.1,0-0.3 c0-0.2,0-0.1,0.1-0.2c0.1-0.1,0-0.1,0.1-0.2c0-0.2,0.1,0.1,0.1,0.1l0.2,0l0,0.1l0.1,0.1h0.2l0.1-0.2c0,0,0-0.2-0.1-0.3 c0-0.1,0.2-0.3,0.2-0.3l0.1,0.2c0,0,0.1,0.3,0.1,0.5s0.2,0,0.2,0s0,0.1,0,0.2c0,0.1,0.2,0.2,0.2,0.2l0.1,0.2l0.1,0.2 c0,0,0,0.1,0,0.3c0,0.2,0,0.2,0.1,0.1c0.1-0.1,0.1-0.1,0.1-0.1c0,0.1,0.2,0.6,0.2,0.6s0,0.4,0,0.6c0,0.2,0,0.1,0.1,0.2 c0,0,0.2,0.1,0.2,0.1c0,0,0-0.2,0.2-0.3c0.1-0.2,0.1-0.1,0.2-0.3c0-0.2,0.2,0.1,0.3,0.4c0.1,0.2,0.2,0.6,0.2,1.1 c0.1,0.5,0.1,0.6,0,1.1c-0.1,0.5-0.1,1.1-0.2,1.5c0,0.4,0.2,0.7,0.3,0.9c0,0.1,0,0.4,0,0.6s0.1,0.6,0.1,0.6s0,0.4,0,0.6 c0,0.2,0.1,0.3,0.2,0.5c0.1,0.2,0.2,0.1,0.2,0c0.1-0.1,0.1-0.1,0-0.5c-0.1-0.4,0-0.2,0.1-0.7c0.1-0.5,0-0.8-0.1-0.9 c-0.1-0.2-0.1-0.2-0.3-0.3c-0.1,0-0.1-0.2,0-0.5c0-0.3-0.1-0.2,0-0.5c0.1-0.3,0-0.1-0.1,0s0,0-0.1-0.2s0-0.3,0-0.4 c0-0.2,0-0.2,0.2-0.7c0.2-0.5,0-0.1,0-0.3c0-0.1,0.1-0.3,0.1-0.4c0-0.1,0.1,0.1,0.1,0.2c0,0.1,0,0.2,0,0.2c0.1,0.1,0.3,0,0.3,0.1 c0,0.1,0.1,0.3,0.1,0.3s0,0.1,0.1,0.3c0,0.2,0.1,0.2,0.2,0.3c0.1,0.1,0,0.2,0,0.2l-0.1,0.2c0,0,0,0.2,0.1,0.1c0.1,0,0.1-0.1,0.2-0.3 c0.2-0.3,0-0.3,0.1-0.4c0-0.2,0.1,0,0.3-0.2c0.1-0.2,0.1-0.5,0.2-0.7c0-0.2,0-0.3,0-0.4c0-0.1,0-0.4-0.1-0.6c0-0.2-0.1-0.2-0.2-0.6 c-0.1-0.5-0.4-1-0.5-1.2c-0.1-0.1,0-0.4,0-0.6c0-0.2,0.1-0.4,0.1-0.5c0-0.2,0-0.3,0.2-0.3c0.2,0,0,0.2,0.2,0.5 c0.2,0.3,0.2-0.3,0.2-0.7c0-0.4,0.2-0.3,0.4-0.6C301,22.3,300.8,22,300.8,22 M275.8,38c-0.1,0.2-0.2,0-0.1,0.2 c0.1,0.2,0.2,0.2,0.2,0.4c0,0.1-0.1,0.5-0.2,0.2c-0.1-0.3,0-0.1-0.1-0.5c-0.1-0.4-0.1-0.1-0.1-0.6c0-0.5,0-0.4-0.1-0.5 c-0.1-0.2-0.1-0.2-0.1-0.2c0.2,0,0.3,0.2,0.3,0.2v0.3v0.2C275.7,37.7,275.9,37.9,275.8,38 M274.5,33.1l0.3-0.2c0,0,0.3,0,0.4,0.1 c0,0,0.1,0.2,0.3,0.2c0.2,0-0.2,0.1-0.2,0.4c0,0.3-0.1,0.1-0.2,0.2c-0.1,0.1,0,0.1,0,0.2c0,0.1,0,0.1-0.1,0.2c-0.1,0.1-0.1,0-0.4,0 c-0.3,0-0.2,0.1-0.2,0.1l0,0c0,0,0,0,0,0l-0.2-0.4l-0.1-0.4L274.5,33.1z M273.9,36.4c-0.1-0.1-0.1-0.4-0.1-0.4l-0.2-0.4l-0.1-0.4 l-0.1-0.4c0,0,0-0.2,0-0.4c0,0,0.1,0.2,0.2,0.3c0,0.1,0,0.4,0,0.6s0,0.2,0.3,0.3c0.3,0.1,0.1,0.1,0.2,0.4c0.1,0.3,0.1,0.1,0.2,0.6 C274.2,37.1,274,36.6,273.9,36.4 M277.2,14.8c-0.1,0.1-0.4,0.2-0.5,0.2c-0.1-0.1-0.4,0.1-0.4,0.1c0,0-0.4,0-0.4-0.1 c0-0.1-0.3,0-0.3-0.1c0-0.1-0.4,0-0.4-0.1c0-0.2-0.7,0-1,0.2c-0.3,0.2-0.7,0.2-0.8,0.1c-0.2-0.1-0.7-0.4-0.6-0.5 c0.1-0.1,0-0.3,0.1-0.3c0.1,0,0.2-0.2,0.1-0.2c0-0.1,0-0.1,0.1-0.2c0.1-0.1,0-0.1,0-0.2c0-0.1,0.1,0,0.2,0c0.1-0.1,0,0,0.1-0.1 c0.1,0,0-0.1,0-0.2s0-0.2,0.2-0.1c0.2,0.1,0.2-0.1,0.3-0.1c0.2-0.1,0.1,0,0.2,0.1c0.1,0.1,0.1,0.1,0.3,0.1c0.2,0,0.6,0,0.8-0.1 c0.2-0.1,0.1-0.1,0.4-0.2c0.3-0.1,0.3,0,0.5-0.1c0.2-0.1,0.4,0,0.3,0.1c-0.1,0-0.4,0.2-0.4,0.3c0.1,0.1,0,0-0.1,0.1 c-0.1,0.1-0.2,0.2-0.6,0.2c-0.5,0-0.2-0.1-0.5-0.2c-0.4-0.1-0.3,0-0.3,0.2c0,0.2,0.1,0.4,0.4,0.3c0.3-0.1,0.2,0,0.3-0.2 c0.1-0.2,0.3,0,0.5,0c0.3-0.1,0,0.1,0.5,0.3c0.4,0.2,0.2,0.2,0.6,0.4c0.3,0.3,0.3,0.1,0.6,0.2C277.4,14.6,277.3,14.7,277.2,14.8  M282,16.6c0,0.1-0.1,0.1-0.4,0.1c-0.3,0.1-0.5,0-0.5,0c0,0-0.1,0-0.2-0.1c-0.1-0.1-0.1-0.1-0.2-0.2c-0.2-0.2-0.5,0-0.6-0.1 c0,0-0.1-0.1-0.1-0.1c0-0.1,0-0.1,0-0.1c0-0.2-0.1-0.3,0-0.3c0,0,0.1,0,0.1-0.1c0,0,0-0.1,0-0.1c0-0.1,0-0.1,0-0.1c0,0,0,0,0,0 c0,0,0-0.1,0-0.1c0,0,0,0,0,0.1c0.1,0,0.3-0.1,0.3-0.1c0,0-0.1,0-0.3-0.1c-0.1,0-0.1-0.1-0.1-0.1c-0.1-0.1-0.1-0.1-0.1-0.2 c-0.1-0.1-0.1-0.1-0.3-0.2c-0.1-0.1-0.1-0.1-0.3-0.2c-0.1,0-0.1-0.1-0.2-0.2c0-0.1-0.1-0.1-0.1-0.1c-0.1-0.1,0-0.3,0-0.3 c0,0-0.1,0-0.1,0c-0.1,0-0.2-0.1-0.2-0.2c0,0,0,0,0.1-0.2c0.1-0.1,0.1-0.1,0.1-0.2c0,0,0.1-0.1,0.2-0.1c0.1,0,0.1,0,0.2-0.1 c0.1,0,0,0,0.1-0.1c0.1-0.1,0.1-0.1,0.2-0.1c0,0,0-0.1,0.1-0.1c0,0,0.1,0,0.1,0c0.2,0,0.5,0,0.5,0c0.1,0,0.1,0,0.1,0 c0.1,0,0.2,0.1,0.3,0.2c0,0.1,0,0.1,0,0.2c0,0.1,0.1,0.1,0.2,0.1c0.1,0,0.2,0,0.2,0c0.1,0,0.1,0.2,0,0.2c-0.1,0-0.2,0-0.3-0.1 c-0.2-0.1-0.3-0.2-0.4-0.2c0,0,0,0-0.1,0.1c-0.1,0.1-0.2,0.1-0.2,0.2c0,0-0.1,0.1-0.1,0.2c0,0.1,0.2,0.1,0.4,0.3 c0.3,0.2,0.4,0.3,0.5,0.5c0,0,0,0.1,0.1,0.2c0,0.1,0.1,0.1,0.2,0.1c0,0,0,0,0-0.1c0-0.1,0-0.2,0-0.3c0.1,0,0.2,0.1,0.2,0.1 c0.1,0.1,0.1,0.1,0.2,0.2c0.1,0,0.1,0,0.2,0.1c0,0,0.1,0.1,0,0.1c0,0,0,0-0.1,0c-0.2,0-0.3,0-0.4,0c0,0-0.1,0-0.1,0.1 c0,0.1-0.1,0.2,0,0.2c0,0,0.1,0,0.2,0c0.1,0,0.2,0,0.2,0.1c0,0,0,0.1-0.1,0.1c0,0.1-0.1,0.1-0.1,0.1c0,0,0.2,0,0.3,0.1 c0.1,0.1,0.1,0.2,0.2,0.5C281.9,16.5,282,16.5,282,16.6 M282.5,13.8C282.5,13.8,282.4,13.8,282.5,13.8c-0.2,0-0.1-0.1-0.1-0.3 c0-0.1,0-0.2,0-0.2c0-0.1,0.2-0.1,0.2-0.1c0,0-0.1,0.1-0.1,0.2c0,0.1,0.1,0.1,0.1,0.2C282.6,13.6,282.6,13.7,282.5,13.8 M283.1,13.8 c0,0.1-0.1,0.1-0.1,0.1c-0.1,0-0.2-0.1-0.2-0.1c0-0.1,0.1-0.1,0.1-0.2c0-0.1-0.2-0.1-0.1-0.2c0-0.1,0.1-0.1,0.1-0.1c0,0,0,0.1,0,0.1 C282.9,13.6,283.1,13.6,283.1,13.8 M283.1,13.1c0,0-0.1,0-0.2,0c-0.1,0-0.2-0.1-0.2-0.1c0,0,0.1-0.1,0.1-0.1c0.1,0,0.2,0,0.2,0 c0.1,0,0.2,0.1,0.2,0.1C283.2,13.1,283.1,13.1,283.1,13.1 M288.2,12.9c0,0.1-0.1,0.1-0.2,0.1c-0.1,0-0.2,0-0.5-0.1 c-0.2,0-0.3-0.1-0.4,0c0,0-0.1,0.1-0.1,0.1c-0.1,0.2,0.2,0.4,0.1,0.4c0,0-0.1,0-0.1,0c-0.2-0.1-0.2-0.3-0.2-0.3c0,0,0-0.1,0-0.2 c0,0,0.1-0.2,0.2-0.2c0.1-0.1,0.2,0,0.5,0.1c0.2,0,0.4,0.1,0.5,0c0.1,0,0.1-0.1,0.2-0.1C288.2,12.8,288.2,12.9,288.2,12.9  M292.6,11.1c-0.1,0-0.2,0-0.3-0.1c-0.1-0.1,0.2-0.3,0.1-0.5c0-0.3-0.4-0.4-0.4-0.6c0-0.1,0.1-0.1,0.2-0.1c0.2,0,0.4,0.3,0.5,0.6 C292.8,10.6,292.7,11,292.6,11.1"></path><path fill="#A11E22" d="M301,21.6c-0.1,0-0.1,0.3-0.1,0.6c0,0.4,0.2,0.7,0.3,0.7c0.1,0,0-0.5,0-0.7C301.2,22.1,301.1,21.6,301,21.6"></path><path fill="#A11E22" d="M301.8,27.5c0,0-0.1-0.2-0.1-0.2c0,0,0-0.1,0-0.2c0-0.2,0-0.2,0-0.3c0-0.1-0.1-0.2-0.1-0.3 c-0.1-0.3,0-0.5,0.1-0.9c0-0.5-0.2-0.9-0.2-0.9c0,0,0,0.1,0,0.4c0,0.1,0,0.2,0,0.6c0,0.7,0,0.3,0,0.7c0,0.3,0,0.4,0,0.5 c0,0.2,0.1,0.2,0.1,0.4c0,0.2,0,0.2,0,0.9c0,0.2,0,0.2,0,0.3c0,0.3,0.1,0.4,0,0.6c0,0.2-0.1,0.2-0.2,0.4c0,0.2,0,0.2,0,0.5 c0,0,0,0.1,0,0.1c0,0,0.2-0.3,0.3-0.5c0.1-0.8,0.2-1.5,0.2-2.3C301.8,27.4,301.8,27.5,301.8,27.5"></path></svg>